<svg id="Capa_1" data-name="Capa 1" xmlns="http://www.w3.org/2000/svg" viewBox="0 0 49.89 49.9"><defs><style>.cls-1{fill:#003f42;}</style></defs><title>facebook-verde1</title><path class="cls-1" d="M89.6,41.39H54.88A7.58,7.58,0,0,0,47.29,49V83.7a7.58,7.58,0,0,0,7.58,7.58H89.6a7.58,7.58,0,0,0,7.58-7.58V49A7.58,7.58,0,0,0,89.6,41.39Zm-3,15.52H83.28c-2.6,0-3.1,1.23-3.1,3v4h6.19l-.81,6.26H80.18V86.26H73.72V70.21h-5.4V64h5.4V59.34c0-5.36,3.27-8.27,8-8.27a43.3,43.3,0,0,1,4.83.25Z" transform="translate(-47.29 -41.39)"/></svg>