<svg id="Capa_1" data-name="Capa 1" xmlns="http://www.w3.org/2000/svg" viewBox="0 0 49 50.41"><defs><style>.cls-1{fill:#003f42;}</style></defs><title>twitter-verde1</title><path class="cls-1" d="M84.8,54a7,7,0,0,0-3.86-4c-2.67-1.08-9-.86-12-.86s-9.33-.26-12,.86a7,7,0,0,0-3.86,4c-1,2.75-.82,9.29-.82,12.34s-.25,9.59.82,12.34a7,7,0,0,0,3.86,4c2.67,1.08,9,.86,12,.86s9.33.26,12-.86a7,7,0,0,0,3.86-4h0c1-2.75.82-9.26.82-12.3S85.88,56.74,84.8,54ZM68.94,77A10.73,10.73,0,1,1,79.36,66q0,.16,0,.33A10.58,10.58,0,0,1,68.94,77ZM82.22,55.14a2.53,2.53,0,1,1,0-.08Z" transform="translate(-44.46 -41.13)"/><ellipse class="cls-1" cx="24.48" cy="25.18" rx="6.78" ry="6.98"/><path class="cls-1" d="M85.78,41.13H52.08A7.78,7.78,0,0,0,44.46,49V83.66a7.78,7.78,0,0,0,7.66,7.88h33.7a7.79,7.79,0,0,0,7.64-7.88V49A7.8,7.8,0,0,0,85.78,41.13Zm3.37,35a11.4,11.4,0,0,1-11.79,11h0c-3.37.21-13.42.21-16.79,0a11,11,0,0,1-1.12,0A11.48,11.48,0,0,1,48.72,75c-.2-3.46-.2-13.8,0-17.26q0-.59,0-1.18a11.38,11.38,0,0,1,11.75-11h.07c3.37-.21,13.42-.21,16.79,0a11,11,0,0,1,1.12,0,11.47,11.47,0,0,1,10.7,12.14c.2,3.47.2,13.8,0,17.26q0,.6,0,1.18Z" transform="translate(-44.46 -41.13)"/></svg>