<svg id="Capa_1" data-name="Capa 1" xmlns="http://www.w3.org/2000/svg" viewBox="0 0 50.67 50.69"><defs><style>.cls-1{fill:#003f42;opacity:0.9;isolation:isolate;}</style></defs><title>instagram-verde1</title><g id="_Grupo_" data-name=" Grupo "><path id="_Trazado_compuesto_" data-name=" Trazado compuesto " class="cls-1" d="M86,41H50.7A7.69,7.69,0,0,0,43,48.68h0V84a7.69,7.69,0,0,0,7.69,7.69H86A7.69,7.69,0,0,0,93.68,84h0V48.68A7.69,7.69,0,0,0,86,41ZM83.21,60.48v.87A18.88,18.88,0,0,1,54.1,77.26h1.58a13.32,13.32,0,0,0,8.25-2.84,6.64,6.64,0,0,1-6.18-4.6,6.37,6.37,0,0,0,1.24,0,6.68,6.68,0,0,0,1.73-.25A6.64,6.64,0,0,1,55.37,63h0a6.67,6.67,0,0,0,3.09.83A6.67,6.67,0,0,1,56.38,55a18.85,18.85,0,0,0,13.69,7,6.64,6.64,0,0,1,11.25-6.2,13.44,13.44,0,0,0,4.2-1.61,6.67,6.67,0,0,1-3.09,3.68,13.32,13.32,0,0,0,3.83-1A13.5,13.5,0,0,1,83.21,60.48Z" transform="translate(-43.01 -40.99)"/></g><g id="_Grupo_2" data-name=" Grupo "><path id="_Trazado_compuesto_2" data-name=" Trazado compuesto " class="cls-1" d="M86,41H50.7A7.69,7.69,0,0,0,43,48.68h0V84a7.69,7.69,0,0,0,7.69,7.69H86A7.69,7.69,0,0,0,93.68,84h0V48.68A7.69,7.69,0,0,0,86,41ZM83.21,60.48v.87A18.88,18.88,0,0,1,54.1,77.26h1.58a13.32,13.32,0,0,0,8.25-2.84,6.64,6.64,0,0,1-6.18-4.6,6.37,6.37,0,0,0,1.24,0,6.68,6.68,0,0,0,1.73-.25A6.64,6.64,0,0,1,55.37,63h0a6.67,6.67,0,0,0,3.09.83A6.67,6.67,0,0,1,56.38,55a18.85,18.85,0,0,0,13.69,7,6.64,6.64,0,0,1,11.25-6.2,13.44,13.44,0,0,0,4.2-1.61,6.67,6.67,0,0,1-3.09,3.68,13.32,13.32,0,0,0,3.83-1A13.5,13.5,0,0,1,83.21,60.48Z" transform="translate(-43.01 -40.99)"/></g></svg>