<svg id="Capa_1" data-name="Capa 1" xmlns="http://www.w3.org/2000/svg" viewBox="0 0 48.1 48.1"><defs><style>.cls-1,.cls-2{fill:#003f42;}.cls-1{opacity:0.9;}</style></defs><title>cimogsys-verde</title><g id="_Grupo_" data-name="&lt;Grupo&gt;"><path id="_Trazado_compuesto_" data-name="&lt;Trazado compuesto&gt;" class="cls-1" d="M93.11,57.34a12.92,12.92,0,1,1-8.32-9.77A24.05,24.05,0,0,0,54.28,84.48l.6-1.74,2.27,2.35-1.83.37A24.06,24.06,0,0,0,93.11,57.34ZM71.82,71.62,58.95,83.54c-.41.38-1.28.11-1.94-.61a2.26,2.26,0,0,1-.67-1.43.73.73,0,0,1,.21-.55L69.42,69c.41-.38,1.28-.11,1.95.61S72.24,71.24,71.82,71.62Zm4.74-16.26a1.07,1.07,0,1,0,1.07,1.07A1.07,1.07,0,0,0,76.56,55.37Zm0,3.81a1.07,1.07,0,1,0,1.07,1.07A1.07,1.07,0,0,0,76.56,59.18Zm0,3.81a1.07,1.07,0,1,0,1.07,1.07A1.07,1.07,0,0,0,76.56,63Z" transform="translate(-47.24 -43.43)"/><g id="_Grupo_2" data-name="&lt;Grupo&gt;"><circle id="_Trazado_" data-name="&lt;Trazado&gt;" class="cls-2" cx="29.32" cy="20.64" r="1.07"/><circle id="_Trazado_2" data-name="&lt;Trazado&gt;" class="cls-2" cx="29.32" cy="16.82" r="1.07"/><circle id="_Trazado_3" data-name="&lt;Trazado&gt;" class="cls-2" cx="29.32" cy="13.01" r="1.07"/><line id="_Trazado_4" data-name="&lt;Trazado&gt;" class="cls-2" x1="8.08" y1="42.03" x2="7.04" y2="41.05"/></g><circle id="_Trazado_5" data-name="&lt;Trazado&gt;" class="cls-1" cx="29.32" cy="13.01" r="1.07"/><circle id="_Trazado_6" data-name="&lt;Trazado&gt;" class="cls-1" cx="29.32" cy="16.82" r="1.07"/><circle id="_Trazado_7" data-name="&lt;Trazado&gt;" class="cls-1" cx="29.32" cy="20.64" r="1.07"/><line id="_Trazado_8" data-name="&lt;Trazado&gt;" class="cls-1" x1="30.02" y1="13.01" x2="36.94" y2="13.01"/><line id="_Trazado_9" data-name="&lt;Trazado&gt;" class="cls-1" x1="30.02" y1="16.82" x2="38.84" y2="16.82"/><line id="_Trazado_10" data-name="&lt;Trazado&gt;" class="cls-1" x1="30.02" y1="20.64" x2="40.24" y2="20.64"/><polyline id="_Trazado_11" data-name="&lt;Trazado&gt;" class="cls-1" points="36.5 16.78 38.1 15 40.65 15"/><polyline id="_Trazado_12" data-name="&lt;Trazado&gt;" class="cls-1" points="34.43 16.86 36.03 18.65 38.58 18.65"/></g></svg>