<?xml version="1.0" encoding="utf-8"?>
<!-- Generator: Adobe Illustrator 19.0.0, SVG Export Plug-In . SVG Version: 6.00 Build 0)  -->
<svg version="1.1" id="Capa_1" xmlns="http://www.w3.org/2000/svg" xmlns:xlink="http://www.w3.org/1999/xlink" x="0px" y="0px"
	 viewBox="0 0 22.4 22.6" style="enable-background:new 0 0 22.4 22.6;" xml:space="preserve">
<style type="text/css">
	.st0{opacity:0.9;fill:#4E4E4E;}
	.st1{fill:#2480A5;}
	.st2{fill:none;}
	.st3{opacity:0.9;fill:none;stroke:#4E4E4E;stroke-width:0.1739;stroke-miterlimit:10;}
</style>
<g id="XMLID_375_">
	<path id="XMLID_541_" class="st0" d="M21.3,6.6c0.1,0.4,0.1,0.7,0.1,1.1c0,3.3-2.7,6-6,6c-3.3,0-6-2.7-6-6c0-3.3,2.7-6,6-6
		c0.7,0,1.4,0.1,2,0.4c-1.8-1.2-3.9-1.9-6.3-1.9c-6.2,0-11.2,5-11.2,11.2c0,3.1,1.2,5.9,3.3,7.9l0.3-0.8l1.1,1.1l-0.8,0.2
		c2,1.8,4.6,2.8,7.4,2.8c6.2,0,11.2-5,11.2-11.2C22.4,9.6,22,8,21.3,6.6z M11.5,13.2l-6,5.5c-0.2,0.2-0.6,0-0.9-0.3
		c-0.2-0.2-0.3-0.5-0.3-0.7c0-0.1,0-0.2,0.1-0.3l6-5.5c0.2-0.2,0.6,0,0.9,0.3C11.6,12.6,11.7,13,11.5,13.2z M13.7,5.7
		c-0.3,0-0.5,0.2-0.5,0.5c0,0.3,0.2,0.5,0.5,0.5c0.3,0,0.5-0.2,0.5-0.5C14.2,5.9,13.9,5.7,13.7,5.7z M13.7,7.4
		c-0.3,0-0.5,0.2-0.5,0.5c0,0.3,0.2,0.5,0.5,0.5c0.3,0,0.5-0.2,0.5-0.5C14.2,7.7,13.9,7.4,13.7,7.4z M13.7,9.2
		c-0.3,0-0.5,0.2-0.5,0.5c0,0.3,0.2,0.5,0.5,0.5c0.3,0,0.5-0.2,0.5-0.5C14.2,9.4,13.9,9.2,13.7,9.2z"/>
	<g id="XMLID_536_">
		<circle id="XMLID_540_" class="st1" cx="13.7" cy="9.7" r="0.5"/>
		<circle id="XMLID_539_" class="st1" cx="13.7" cy="7.9" r="0.5"/>
		<circle id="XMLID_538_" class="st1" cx="13.7" cy="6.2" r="0.5"/>
		<line id="XMLID_537_" class="st2" x1="3.8" y1="19.6" x2="3.3" y2="19.2"/>
	</g>
	<circle id="XMLID_535_" class="st0" cx="13.7" cy="6.2" r="0.5"/>
	<circle id="XMLID_534_" class="st0" cx="13.7" cy="7.9" r="0.5"/>
	<circle id="XMLID_533_" class="st0" cx="13.7" cy="9.7" r="0.5"/>
	<line id="XMLID_532_" class="st3" x1="14" y1="6.2" x2="17.2" y2="6.2"/>
	<line id="XMLID_447_" class="st3" x1="14" y1="7.9" x2="18.1" y2="7.9"/>
	<line id="XMLID_378_" class="st3" x1="14" y1="9.7" x2="18.7" y2="9.7"/>
	<polyline id="XMLID_377_" class="st3" points="17,7.9 17.7,7.1 18.9,7.1 	"/>
	<polyline id="XMLID_376_" class="st3" points="16,8 16.8,8.8 18,8.8 	"/>
</g>
</svg>
