<svg id="Capa_1" data-name="Capa 1" xmlns="http://www.w3.org/2000/svg" viewBox="0 0 16.37 16.37"><defs><style>.cls-1{opacity:0.9;}.cls-2{fill:#4e4d4d;}</style></defs><title>fb</title><g id="_Grupo_" data-name="&lt;Grupo&gt;" class="cls-1"><path id="_Trazado_compuesto_" data-name="&lt;Trazado compuesto&gt;" class="cls-2" d="M303.83,413.29H292.44a2.49,2.49,0,0,0-2.49,2.49v11.39a2.49,2.49,0,0,0,2.49,2.49h11.39a2.49,2.49,0,0,0,2.49-2.49V415.77A2.49,2.49,0,0,0,303.83,413.29Zm-1,5.09h-1.09c-.85,0-1,.4-1,1v1.31h2l-.26,2.05h-1.77V428h-2.12v-5.27h-1.77v-2.05h1.77v-1.51a2.47,2.47,0,0,1,2.64-2.71,14.17,14.17,0,0,1,1.58.08Z" transform="translate(-289.95 -413.29)"/></g></svg>