<svg id="Capa_1" data-name="Capa 1" xmlns="http://www.w3.org/2000/svg" viewBox="0 0 23.32 18.54"><defs><style>.cls-1{fill:#b9eacd;opacity:0.5;}.cls-2{fill:none;stroke:#fcfcfc;stroke-miterlimit:10;stroke-width:0.75px;}</style></defs><title>icono regresar</title><path class="cls-1" d="M9.5,20.5h14l-5-4.84s4.9-5.68,8.54-2.12c0,0,2.49.83.12,6.6l-1.94,2.65s-.63,1.27,1.5.4a8.89,8.89,0,0,0,5.3-9s.08-6.33-7.83-7.51c0,0-6.72-.79-10.2,4.35L9.5,6.27Z" transform="translate(-9.13 -5.33)"/><path class="cls-2" d="M9.5,20.5h14l-5-4.84s4.9-5.68,8.54-2.12c0,0,2.49.83.12,6.6l-1.94,2.65s-.63,1.27,1.5.4a8.89,8.89,0,0,0,5.3-9s.08-6.33-7.83-7.51c0,0-6.72-.79-10.2,4.35L9.5,6.27Z" transform="translate(-9.13 -5.33)"/></svg>