<svg id="Capa_1" data-name="Capa 1" xmlns="http://www.w3.org/2000/svg" viewBox="0 0 42.67 42.67"><defs><style>.cls-1{fill:#bbddc8;opacity:0.5;}.cls-2{fill:none;stroke:#fdfdfd;stroke-miterlimit:10;}</style></defs><title>descarga</title><path class="cls-1" d="M41.2,16.95h6.51a2,2,0,0,1,2,2V32.58H56.8A1.62,1.62,0,0,1,58,35.35L45.57,47.74a1.58,1.58,0,0,1-2.22,0L31,35.35a1.62,1.62,0,0,1,1.15-2.78h7.15V18.9A2,2,0,0,1,41.2,16.95Zm24.09,30.6v9.12a2,2,0,0,1-2,2H25.58a2,2,0,0,1-2-2V47.55a2,2,0,0,1,2-2H37.52l4,4a4.17,4.17,0,0,0,5.91,0l4-4H63.34A2,2,0,0,1,65.29,47.55ZM55.2,54.71a1.63,1.63,0,1,0-1.63,1.63A1.63,1.63,0,0,0,55.2,54.71Zm5.21,0a1.63,1.63,0,1,0-1.63,1.63A1.63,1.63,0,0,0,60.41,54.71Z" transform="translate(-23.12 -16.45)"/><path class="cls-2" d="M41.2,16.95h6.51a2,2,0,0,1,2,2V32.58H56.8A1.62,1.62,0,0,1,58,35.35L45.57,47.74a1.58,1.58,0,0,1-2.22,0L31,35.35a1.62,1.62,0,0,1,1.15-2.78h7.15V18.9A2,2,0,0,1,41.2,16.95Zm24.09,30.6v9.12a2,2,0,0,1-2,2H25.58a2,2,0,0,1-2-2V47.55a2,2,0,0,1,2-2H37.52l4,4a4.17,4.17,0,0,0,5.91,0l4-4H63.34A2,2,0,0,1,65.29,47.55ZM55.2,54.71a1.63,1.63,0,1,0-1.63,1.63A1.63,1.63,0,0,0,55.2,54.71Zm5.21,0a1.63,1.63,0,1,0-1.63,1.63A1.63,1.63,0,0,0,60.41,54.71Z" transform="translate(-23.12 -16.45)"/></svg>