<svg id="Capa_1" data-name="Capa 1" xmlns="http://www.w3.org/2000/svg" viewBox="0 0 16.35 16.35"><defs><style>.cls-1{fill:#4e4d4d;}.cls-1,.cls-4{opacity:0.9;}.cls-2{fill:#2480a5;}.cls-3,.cls-4{fill:none;}.cls-4{stroke:#4e4d4d;stroke-miterlimit:10;stroke-width:0.13px;}</style></defs><title>icono cimogsys</title><g id="_Grupo_" data-name="&lt;Grupo&gt;"><path id="_Trazado_compuesto_" data-name="&lt;Trazado compuesto&gt;" class="cls-1" d="M58,32.71a4.39,4.39,0,1,1-2.83-3.32A8.18,8.18,0,0,0,44.76,41.94l.2-.59.77.8-.62.13A8.18,8.18,0,0,0,58,32.71Zm-7.23,4.86-4.38,4c-.14.13-.44,0-.66-.21a.77.77,0,0,1-.23-.49.25.25,0,0,1,.07-.19l4.38-4c.14-.13.44,0,.66.21S50.86,37.44,50.72,37.57ZM52.33,32a.36.36,0,1,0,.36.36A.36.36,0,0,0,52.33,32Zm0,1.3a.36.36,0,1,0,.36.36A.36.36,0,0,0,52.33,33.34Zm0,1.3a.36.36,0,1,0,.36.36A.36.36,0,0,0,52.33,34.64Z" transform="translate(-42.37 -27.99)"/><g id="_Grupo_2" data-name="&lt;Grupo&gt;"><circle id="_Trazado_" data-name="&lt;Trazado&gt;" class="cls-2" cx="9.96" cy="7.01" r="0.36"/><circle id="_Trazado_2" data-name="&lt;Trazado&gt;" class="cls-2" cx="9.96" cy="5.72" r="0.36"/><circle id="_Trazado_3" data-name="&lt;Trazado&gt;" class="cls-2" cx="9.96" cy="4.42" r="0.36"/><line id="_Trazado_4" data-name="&lt;Trazado&gt;" class="cls-3" x1="2.74" y1="14.29" x2="2.39" y2="13.95"/></g><circle id="_Trazado_5" data-name="&lt;Trazado&gt;" class="cls-1" cx="9.96" cy="4.42" r="0.36"/><circle id="_Trazado_6" data-name="&lt;Trazado&gt;" class="cls-1" cx="9.96" cy="5.72" r="0.36"/><circle id="_Trazado_7" data-name="&lt;Trazado&gt;" class="cls-1" cx="9.96" cy="7.01" r="0.36"/><line id="_Trazado_8" data-name="&lt;Trazado&gt;" class="cls-4" x1="10.21" y1="4.42" x2="12.55" y2="4.42"/><line id="_Trazado_9" data-name="&lt;Trazado&gt;" class="cls-4" x1="10.21" y1="5.72" x2="13.2" y2="5.72"/><line id="_Trazado_10" data-name="&lt;Trazado&gt;" class="cls-4" x1="10.21" y1="7.01" x2="13.68" y2="7.01"/><polyline id="_Trazado_11" data-name="&lt;Trazado&gt;" class="cls-4" points="12.41 5.7 12.95 5.1 13.82 5.1"/><polyline id="_Trazado_12" data-name="&lt;Trazado&gt;" class="cls-4" points="11.7 5.73 12.24 6.34 13.11 6.34"/></g></svg>