<svg id="Capa_1" data-name="Capa 1" xmlns="http://www.w3.org/2000/svg" viewBox="0 0 171.33 176.23"><defs><style>.cls-1{fill:#4f4e4e;opacity:0.9;}.cls-2{fill:#fefffd;}</style></defs><title>instagram</title><path class="cls-1" d="M182,79.52a24.33,24.33,0,0,0-13.51-13.9c-9.33-3.77-31.56-3-41.94-3s-32.61-.9-41.94,3a24.33,24.33,0,0,0-13.51,13.9c-3.66,9.6-2.88,32.46-2.88,43.14s-.87,33.54,2.88,43.14a24.33,24.33,0,0,0,13.51,13.9c9.33,3.77,31.56,3,41.94,3s32.61.9,41.94-3A24.33,24.33,0,0,0,182,165.79v-.09c3.57-9.6,2.88-32.37,2.88-43S185.77,89.11,182,79.52ZM126.57,160c-20.13,0-36.44-16.78-36.44-37.49s16.32-37.49,36.44-37.49S163,101.86,163,122.56,146.69,160,126.57,160ZM173,83.55a8.83,8.83,0,1,1,0-.27Z" transform="translate(-40.86 -34.54)"/><ellipse class="cls-1" cx="85.71" cy="88.03" rx="23.71" ry="24.39"/><path class="cls-1" d="M185.42,34.54H67.62c-14.72,0-26.77,12.39-26.77,27.53V183.23c0,15.14,12,27.53,26.77,27.53h117.8c14.72,0,26.77-12.39,26.77-27.53V62.07C212.19,46.93,200.14,34.54,185.42,34.54Zm11.77,122.29c-1.09,22.36-19.59,39.58-41.33,38.46-11.77.72-46.91.72-58.68,0a38.38,38.38,0,0,1-3.93,0c-21.74-1.12-38.48-20.15-37.39-42.51-.7-12.11-.7-48.25,0-60.35q-.1-2.07,0-4.14C57,66,75.5,48.84,97.18,50c11.77-.72,46.91-.72,58.68,0a38.38,38.38,0,0,1,3.93,0c21.72,1.12,38.45,20.11,37.39,42.45.7,12.13.7,48.23,0,60.33Q197.28,154.81,197.19,156.83Z" transform="translate(-40.86 -34.54)"/><path class="cls-2" d="M197.19,92.52s0,0,0-.06v.06Z" transform="translate(-40.86 -34.54)"/></svg>