<svg id="Capa_1" data-name="Capa 1" xmlns="http://www.w3.org/2000/svg" viewBox="0 0 370.52 161.59"><defs><style>.cls-1{fill:#1c1c1a;}.cls-2{fill:#008c3f;}.cls-3{fill:#d21a1a;}</style></defs><title>logo vinculacion</title><path class="cls-1" d="M181.77,96.72h7.67a7.19,7.19,0,0,1,6.06,2.81,10.45,10.45,0,0,1,1.92,6.49,13.07,13.07,0,0,1-1.13,5.52,7,7,0,0,1-6.87,4.36h-7.64Zm7.16,17a6.87,6.87,0,0,0,2.12-.27,4.68,4.68,0,0,0,2.43-2,8.13,8.13,0,0,0,1.09-3,11.61,11.61,0,0,0,.19-2,9.53,9.53,0,0,0-1.39-5.54,5.07,5.07,0,0,0-4.46-2h-4.51v14.73Z" transform="translate(-8.35 -7.74)"/><path class="cls-1" d="M202.06,96.72h2.63V115.9h-2.63Z" transform="translate(-8.35 -7.74)"/><path class="cls-1" d="M209.72,96.72h8.72a8.56,8.56,0,0,1,3.55.64,4.54,4.54,0,0,1,2.65,4.53,4.72,4.72,0,0,1-2.7,4.58,3.92,3.92,0,0,1,1.69,1.2,4.31,4.31,0,0,1,.63,2.42l.09,2.57a7.85,7.85,0,0,0,.18,1.63,1.61,1.61,0,0,0,.84,1.18v.43H222.2a2.4,2.4,0,0,1-.21-.64,12.41,12.41,0,0,1-.13-1.52l-.16-3.2a2.7,2.7,0,0,0-1.36-2.52,5.48,5.48,0,0,0-2.27-.35h-5.75v8.23h-2.6Zm8.44,8.79a4.79,4.79,0,0,0,2.81-.73,3,3,0,0,0,1-2.64,2.85,2.85,0,0,0-1.45-2.79,4.63,4.63,0,0,0-2.07-.39h-6.17v6.56Z" transform="translate(-8.35 -7.74)"/><path class="cls-1" d="M229.48,96.72H243.4v2.35H232v5.82h10.53v2.22H232v6.5H243.6v2.29H229.48Z" transform="translate(-8.35 -7.74)"/><path class="cls-1" d="M261.15,98.11a6.81,6.81,0,0,1,2.21,4.36h-2.53a4.83,4.83,0,0,0-5.23-4,5.64,5.64,0,0,0-4.5,2q-1.71,2-1.71,6.11a9,9,0,0,0,1.55,5.47,5.36,5.36,0,0,0,4.61,2.1,4.85,4.85,0,0,0,4.3-2.21,8.48,8.48,0,0,0,1.17-3.06h2.53a8.7,8.7,0,0,1-2.22,5.08,7.85,7.85,0,0,1-6.09,2.47,8,8,0,0,1-5.55-2q-3-2.68-3-8.27a10.65,10.65,0,0,1,2.22-7,8.07,8.07,0,0,1,6.62-3A7.71,7.71,0,0,1,261.15,98.11Z" transform="translate(-8.35 -7.74)"/><path class="cls-1" d="M281,98.11a6.81,6.81,0,0,1,2.21,4.36h-2.53a4.83,4.83,0,0,0-5.23-4,5.64,5.64,0,0,0-4.5,2q-1.71,2-1.71,6.11a9,9,0,0,0,1.55,5.47,5.36,5.36,0,0,0,4.61,2.1,4.85,4.85,0,0,0,4.3-2.21,8.48,8.48,0,0,0,1.17-3.06h2.53a8.7,8.7,0,0,1-2.22,5.08,7.85,7.85,0,0,1-6.09,2.47,8,8,0,0,1-5.55-2q-3-2.68-3-8.27a10.65,10.65,0,0,1,2.22-7,8.07,8.07,0,0,1,6.62-3A7.71,7.71,0,0,1,281,98.11Z" transform="translate(-8.35 -7.74)"/><path class="cls-1" d="M287.82,96.72h2.63V115.9h-2.63Z" transform="translate(-8.35 -7.74)"/><path class="cls-1" d="M311,99.46a10.58,10.58,0,0,1,1.91,6.52,11.4,11.4,0,0,1-2.18,7.14,9.69,9.69,0,0,1-14.26.42,11,11,0,0,1-2.26-7.13,11.34,11.34,0,0,1,1.93-6.66,8.37,8.37,0,0,1,7.34-3.55Q308.53,96.19,311,99.46Zm-2.29,12.23a10.49,10.49,0,0,0,1.53-5.67,8.09,8.09,0,0,0-1.77-5.45,6,6,0,0,0-4.84-2.07,6.3,6.3,0,0,0-4.86,2q-1.88,2-1.88,6a8.81,8.81,0,0,0,1.61,5.38q1.61,2.19,5.23,2.19A5.41,5.41,0,0,0,308.68,111.69Zm-2.34-20.78-3.49,3.77H301l2.39-3.77Z" transform="translate(-8.35 -7.74)"/><path class="cls-1" d="M316.48,96.72h3.06l9.57,15.5V96.72h2.48V115.9h-2.92L319,100.42V115.9h-2.48Z" transform="translate(-8.35 -7.74)"/><path class="cls-1" d="M344.36,96.72H352a7.19,7.19,0,0,1,6.06,2.81A10.45,10.45,0,0,1,360,106a13.07,13.07,0,0,1-1.13,5.52A7,7,0,0,1,352,115.9h-7.64Zm7.16,17a6.87,6.87,0,0,0,2.12-.27,4.68,4.68,0,0,0,2.43-2,8.13,8.13,0,0,0,1.09-3,11.61,11.61,0,0,0,.19-2,9.53,9.53,0,0,0-1.39-5.54,5.07,5.07,0,0,0-4.46-2H347v14.73Z" transform="translate(-8.35 -7.74)"/><path class="cls-1" d="M364.31,96.72h13.92v2.35H366.84v5.82h10.53v2.22H366.84v6.5h11.58v2.29H364.31Z" transform="translate(-8.35 -7.74)"/><path class="cls-1" d="M193.48,123.66h4.17l-6.56,19.25h-3.8l-6.51-19.25h4.3l4.18,14.61Z" transform="translate(-8.35 -7.74)"/><path class="cls-1" d="M205.19,142.91h-4V123.66h4Z" transform="translate(-8.35 -7.74)"/><path class="cls-1" d="M210.36,123.66h4.21l7.64,13.42V123.66H226v19.25h-4l-7.83-13.66v13.66h-3.75Z" transform="translate(-8.35 -7.74)"/><path class="cls-1" d="M233,125.67a8,8,0,0,1,5.92-2.37q4.81,0,7,3.19a6.91,6.91,0,0,1,1.32,3.59h-4a5.39,5.39,0,0,0-1-2.09,4.37,4.37,0,0,0-6.58.52,8.72,8.72,0,0,0-1.23,5,7.56,7.56,0,0,0,1.31,4.85,4.09,4.09,0,0,0,3.32,1.61,3.8,3.8,0,0,0,3.16-1.38,6.11,6.11,0,0,0,1-2.24h4a8.64,8.64,0,0,1-2.65,5.12,7.68,7.68,0,0,1-5.44,2,8.15,8.15,0,0,1-6.45-2.66,10.71,10.71,0,0,1-2.35-7.34Q230.38,128.4,233,125.67Z" transform="translate(-8.35 -7.74)"/><path class="cls-1" d="M252,123.66h4.09v11.82a6.79,6.79,0,0,0,.46,2.9q.74,1.61,3.18,1.61c1.62,0,2.68-.54,3.16-1.61a6.62,6.62,0,0,0,.47-2.9V123.66h4.08v11.83a9.89,9.89,0,0,1-1,4.78c-1.18,2.09-3.44,3.14-6.76,3.14s-5.59-1-6.78-3.14a9.89,9.89,0,0,1-1-4.78Z" transform="translate(-8.35 -7.74)"/><path class="cls-1" d="M272.78,123.66h4v15.79h9.61v3.46H272.78Z" transform="translate(-8.35 -7.74)"/><path class="cls-1" d="M296.09,123.66h4.55l6.81,19.25h-4.36l-1.26-4h-7.09l-1.31,4h-4.2Zm-.27,12h4.93l-2.43-7.57Z" transform="translate(-8.35 -7.74)"/><path class="cls-1" d="M313.21,125.67a8,8,0,0,1,5.92-2.37q4.81,0,7,3.19a6.91,6.91,0,0,1,1.32,3.59h-4a5.39,5.39,0,0,0-1-2.09,4.37,4.37,0,0,0-6.58.52,8.72,8.72,0,0,0-1.23,5,7.56,7.56,0,0,0,1.31,4.85,4.09,4.09,0,0,0,3.32,1.61,3.8,3.8,0,0,0,3.16-1.38,6.11,6.11,0,0,0,1-2.24h4a8.64,8.64,0,0,1-2.65,5.12,7.68,7.68,0,0,1-5.44,2,8.15,8.15,0,0,1-6.45-2.66,10.71,10.71,0,0,1-2.35-7.34Q310.55,128.4,313.21,125.67Z" transform="translate(-8.35 -7.74)"/><path class="cls-1" d="M335.83,142.91h-4V123.66h4Z" transform="translate(-8.35 -7.74)"/><path class="cls-1" d="M355.88,141.2a10,10,0,0,1-12.61,0q-2.93-2.75-2.93-7.94t2.93-7.94a10,10,0,0,1,12.61,0q2.9,2.65,2.91,7.94T355.88,141.2Zm-2.51-2.92a9.63,9.63,0,0,0,0-10,4.58,4.58,0,0,0-3.8-1.77,4.66,4.66,0,0,0-3.82,1.76,9.59,9.59,0,0,0,0,10,4.66,4.66,0,0,0,3.82,1.76A4.59,4.59,0,0,0,353.37,138.27Zm.66-20.65-4,3.9h-2.69l2.5-3.9Z" transform="translate(-8.35 -7.74)"/><path class="cls-1" d="M363.27,123.66h4.21l7.64,13.42V123.66h3.75v19.25h-4L367,129.25v13.66h-3.75Z" transform="translate(-8.35 -7.74)"/><path class="cls-1" d="M181.55,149.58h13.92v2.35H184.08v5.82h10.53V160H184.08v6.5h11.58v2.29H181.55Z" transform="translate(-8.35 -7.74)"/><path class="cls-1" d="M203.51,162.58a5.39,5.39,0,0,0,.74,2.65q1.25,1.91,4.39,1.91a7.5,7.5,0,0,0,2.57-.42,2.94,2.94,0,0,0,2.24-2.9,2.53,2.53,0,0,0-.95-2.23,9.4,9.4,0,0,0-3-1.14l-2.52-.59a11.17,11.17,0,0,1-3.49-1.27,4.05,4.05,0,0,1-1.77-3.59,5.6,5.6,0,0,1,1.74-4.24,6.86,6.86,0,0,1,4.93-1.66,8.4,8.4,0,0,1,5,1.46,5.31,5.31,0,0,1,2.05,4.66H213a4.94,4.94,0,0,0-.8-2.36,4.56,4.56,0,0,0-3.87-1.5,4.35,4.35,0,0,0-3.17,1,3.08,3.08,0,0,0-1,2.25,2.21,2.21,0,0,0,1.14,2.06,16.28,16.28,0,0,0,3.38,1l2.61.61a7.85,7.85,0,0,1,2.91,1.21A4.6,4.6,0,0,1,216,163.4a4.91,4.91,0,0,1-2.26,4.56,9.92,9.92,0,0,1-5.25,1.37A7.73,7.73,0,0,1,203,167.5a6.24,6.24,0,0,1-1.94-4.92Z" transform="translate(-8.35 -7.74)"/><path class="cls-1" d="M222.57,149.58h8.58a5.82,5.82,0,0,1,4.11,1.44,5.24,5.24,0,0,1,1.57,4.05,5.9,5.9,0,0,1-1.4,3.91,5.27,5.27,0,0,1-4.28,1.66h-6v8.11h-2.6Zm10.08,2.64a5.59,5.59,0,0,0-2.35-.4h-5.13v6.65h5.13a4.88,4.88,0,0,0,2.82-.74,3,3,0,0,0,1.08-2.63A2.89,2.89,0,0,0,232.65,152.22Z" transform="translate(-8.35 -7.74)"/><path class="cls-1" d="M258.64,152.32a10.58,10.58,0,0,1,1.91,6.52,11.41,11.41,0,0,1-2.18,7.14,9.69,9.69,0,0,1-14.26.42,11,11,0,0,1-2.26-7.13,11.34,11.34,0,0,1,1.93-6.66,8.37,8.37,0,0,1,7.34-3.55Q256.2,149.06,258.64,152.32Zm-2.29,12.23a10.5,10.5,0,0,0,1.53-5.67,8.09,8.09,0,0,0-1.77-5.45,6,6,0,0,0-4.84-2.06,6.3,6.3,0,0,0-4.86,2q-1.88,2-1.88,6a8.82,8.82,0,0,0,1.61,5.38q1.61,2.19,5.23,2.19A5.41,5.41,0,0,0,256.35,164.55Z" transform="translate(-8.35 -7.74)"/><path class="cls-1" d="M279.88,151a6.81,6.81,0,0,1,2.21,4.36h-2.53a4.82,4.82,0,0,0-5.23-4,5.64,5.64,0,0,0-4.49,2q-1.71,2-1.71,6.11a9,9,0,0,0,1.55,5.47,5.36,5.36,0,0,0,4.61,2.1,4.85,4.85,0,0,0,4.3-2.21,8.49,8.49,0,0,0,1.17-3.06h2.53a8.71,8.71,0,0,1-2.22,5.08,7.86,7.86,0,0,1-6.09,2.47,8,8,0,0,1-5.55-2q-3-2.68-3-8.27a10.65,10.65,0,0,1,2.22-7,8.07,8.07,0,0,1,6.62-3A7.71,7.71,0,0,1,279.88,151Z" transform="translate(-8.35 -7.74)"/><path class="cls-1" d="M288.37,149.58H291v7.93h9.86v-7.93h2.63v19.18h-2.63v-9H291v9h-2.63Z" transform="translate(-8.35 -7.74)"/><path class="cls-2" d="M169.59,95h-22a53,53,0,0,1-53,51.86c-1.6,0-3.19-.08-4.75-.22v22.3h79.83V95Z" transform="translate(-8.35 -7.74)"/><path class="cls-2" d="M146.66,26.36a23.8,23.8,0,0,0-46.46,0q-.09.4-.16.8a23.74,23.74,0,0,0,1.69,14.14A52.8,52.8,0,0,1,130,54.4a23.79,23.79,0,0,0,16.63-28Z" transform="translate(-8.35 -7.74)"/><path class="cls-3" d="M75,44.57A23.8,23.8,0,1,0,51.87,74.13q.62,0,1.23,0A23.81,23.81,0,0,0,75.6,52c0-.55.06-1.1.06-1.66A23.84,23.84,0,0,0,75,44.57Z" transform="translate(-8.35 -7.74)"/><path class="cls-2" d="M61.12,134.91l-5.77,5.77L50,146q-1,.74-2,1.4l.29.3a70.73,70.73,0,0,0,36.64,19.79v-21.6A52.78,52.78,0,0,1,61.12,134.91Z" transform="translate(-8.35 -7.74)"/><path class="cls-2" d="M42.11,101.22a23.73,23.73,0,0,0-14.17-1.81l-.8.15a23.8,23.8,0,1,0,28,29.58A52.8,52.8,0,0,1,42.11,101.22Z" transform="translate(-8.35 -7.74)"/><path class="cls-3" d="M130.64,65.39A46.2,46.2,0,0,0,119,54.91a45.6,45.6,0,0,0-19.67-6.79,46.38,46.38,0,0,0-9.49,0,45.77,45.77,0,0,0-4.9.78q-1.13.24-2.24.54c0,.29,0,.59,0,.88A30.86,30.86,0,0,1,51.87,81.18c-.48,0-1,0-1.42,0a45.74,45.74,0,0,0-1.62,8.91c-.1,1.24-.17,2.49-.17,3.76,0,.38,0,.76,0,1.15,0,1.32.11,2.63.25,3.91A45.65,45.65,0,0,0,61.3,125.43,45.9,45.9,0,0,0,140.48,95c0-.38,0-.76,0-1.15,0-1.27-.07-2.52-.17-3.76A45.68,45.68,0,0,0,130.64,65.39Z" transform="translate(-8.35 -7.74)"/><path class="cls-2" d="M148.51,47.51l-.34-.33q-.74,1.17-1.59,2.26l-5.24,5.24-5.66,5.66a52.75,52.75,0,0,1,11.76,29.71h21.77A70.66,70.66,0,0,0,148.51,47.51Z" transform="translate(-8.35 -7.74)"/></svg>