<svg id="Capa_1" data-name="Capa 1" xmlns="http://www.w3.org/2000/svg" viewBox="0 0 16.4 16.4"><defs><style>.cls-1{fill:#4e4d4d;opacity:0.9;}</style></defs><title>tw</title><g id="_Grupo_" data-name="&lt;Grupo&gt;"><path id="_Trazado_compuesto_" data-name="&lt;Trazado compuesto&gt;" class="cls-1" d="M303.51,413.18H292.09a2.49,2.49,0,0,0-2.49,2.49v11.42a2.49,2.49,0,0,0,2.49,2.49h11.42a2.49,2.49,0,0,0,2.49-2.49V415.67A2.49,2.49,0,0,0,303.51,413.18Zm-.92,6.31c0,.09,0,.19,0,.28a6.11,6.11,0,0,1-9.41,5.15,4.54,4.54,0,0,0,.51,0,4.31,4.31,0,0,0,2.67-.92,2.15,2.15,0,0,1-2-1.49,2.06,2.06,0,0,0,.4,0,2.16,2.16,0,0,0,.56-.08,2.15,2.15,0,0,1-1.72-2.11v0a2.16,2.16,0,0,0,1,.27,2.16,2.16,0,0,1-.67-2.87,6.1,6.1,0,0,0,4.43,2.25,2.17,2.17,0,0,1-.06-.49A2.15,2.15,0,0,1,302,418a4.35,4.35,0,0,0,1.36-.52,2.16,2.16,0,0,1-.95,1.19,4.31,4.31,0,0,0,1.23-.34A4.37,4.37,0,0,1,302.59,419.49Z" transform="translate(-289.6 -413.18)"/></g></svg>