<?xml version="1.0" encoding="utf-8"?>
<!-- Generator: Adobe Illustrator 19.0.0, SVG Export Plug-In . SVG Version: 6.00 Build 0)  -->
<svg version="1.1" id="Capa_1" xmlns="http://www.w3.org/2000/svg" xmlns:xlink="http://www.w3.org/1999/xlink" x="0px" y="0px"
	 viewBox="0 0 22.4 22.6" style="enable-background:new 0 0 22.4 22.6;" xml:space="preserve">
<style type="text/css">
	.st0{opacity:0.9;}
	.st1{fill:#4E4E4E;}
	.st2{opacity:0.9;fill:#4E4E4E;}
	.st3{fill:#2480A5;}
	.st4{fill:none;}
	.st5{opacity:0.9;fill:none;stroke:#4E4E4E;stroke-width:0.1739;stroke-miterlimit:10;}
</style>
<g id="XMLID_641_" class="st0">
	<path id="XMLID_642_" class="st1" d="M19,0.1H3.4C1.6,0.1,0,1.6,0,3.5v15.6c0,1.9,1.5,3.4,3.4,3.4H19c1.9,0,3.4-1.5,3.4-3.4V3.5
		C22.4,1.6,20.9,0.1,19,0.1z M17.6,7.1l-1.5,0c-1.2,0-1.4,0.6-1.4,1.4v1.8h2.8L17.2,13h-2.4v7.2h-2.9V13H9.5v-2.8h2.4V8.2
		c0-2.4,1.5-3.7,3.6-3.7c1,0,1.9,0.1,2.2,0.1V7.1z"/>
</g>
<g id="XMLID_631_">
	<g id="XMLID_32_">
		<path id="XMLID_33_" class="st2" d="M-54.7,0.1h-15.6c-1.9,0-3.4,1.5-3.4,3.4v15.6c0,1.9,1.5,3.4,3.4,3.4h15.6
			c1.9,0,3.4-1.5,3.4-3.4V3.5C-51.3,1.6-52.9,0.1-54.7,0.1z M-56,8.7c0,0.1,0,0.3,0,0.4c0,3.9-3,8.3-8.3,8.3c-1.7,0-3.2-0.5-4.5-1.3
			c0.2,0,0.5,0,0.7,0c1.4,0,2.6-0.5,3.6-1.3c-1.3,0-2.4-0.9-2.7-2c0.2,0,0.4,0.1,0.6,0.1c0.3,0,0.5,0,0.8-0.1
			c-1.3-0.3-2.4-1.5-2.4-2.9v0c0.4,0.2,0.8,0.4,1.3,0.4c-0.8-0.5-1.3-1.4-1.3-2.4c0-0.5,0.1-1,0.4-1.5c1.4,1.8,3.6,2.9,6,3.1
			c0-0.2-0.1-0.4-0.1-0.7c0-1.6,1.3-2.9,2.9-2.9c0.8,0,1.6,0.4,2.1,0.9c0.7-0.1,1.3-0.4,1.9-0.7c-0.2,0.7-0.7,1.3-1.3,1.6
			c0.6-0.1,1.2-0.2,1.7-0.5C-54.9,7.8-55.4,8.3-56,8.7z"/>
	</g>
</g>
<g id="XMLID_375_">
	<path id="XMLID_541_" class="st2" d="M-96,6.6c0.1,0.4,0.1,0.7,0.1,1.1c0,3.3-2.7,6-6,6c-3.3,0-6-2.7-6-6c0-3.3,2.7-6,6-6
		c0.7,0,1.4,0.1,2,0.4c-1.8-1.2-3.9-1.9-6.3-1.9c-6.2,0-11.2,5-11.2,11.2c0,3.1,1.2,5.9,3.3,7.9l0.3-0.8l1.1,1.1l-0.8,0.2
		c2,1.8,4.6,2.8,7.4,2.8c6.2,0,11.2-5,11.2-11.2C-94.9,9.6-95.3,8-96,6.6z M-105.8,13.2l-6,5.5c-0.2,0.2-0.6,0-0.9-0.3
		c-0.2-0.2-0.3-0.5-0.3-0.7c0-0.1,0-0.2,0.1-0.3l6-5.5c0.2-0.2,0.6,0,0.9,0.3C-105.7,12.6-105.7,13-105.8,13.2z M-103.6,5.7
		c-0.3,0-0.5,0.2-0.5,0.5c0,0.3,0.2,0.5,0.5,0.5c0.3,0,0.5-0.2,0.5-0.5C-103.2,5.9-103.4,5.7-103.6,5.7z M-103.6,7.4
		c-0.3,0-0.5,0.2-0.5,0.5c0,0.3,0.2,0.5,0.5,0.5c0.3,0,0.5-0.2,0.5-0.5C-103.2,7.7-103.4,7.4-103.6,7.4z M-103.6,9.2
		c-0.3,0-0.5,0.2-0.5,0.5c0,0.3,0.2,0.5,0.5,0.5c0.3,0,0.5-0.2,0.5-0.5C-103.2,9.4-103.4,9.2-103.6,9.2z"/>
	<g id="XMLID_536_">
		<circle id="XMLID_540_" class="st3" cx="-103.6" cy="9.7" r="0.5"/>
		<circle id="XMLID_539_" class="st3" cx="-103.6" cy="7.9" r="0.5"/>
		<circle id="XMLID_538_" class="st3" cx="-103.6" cy="6.2" r="0.5"/>
		<line id="XMLID_537_" class="st4" x1="-113.5" y1="19.6" x2="-114" y2="19.2"/>
	</g>
	<circle id="XMLID_535_" class="st2" cx="-103.6" cy="6.2" r="0.5"/>
	<circle id="XMLID_534_" class="st2" cx="-103.6" cy="7.9" r="0.5"/>
	<circle id="XMLID_533_" class="st2" cx="-103.6" cy="9.7" r="0.5"/>
	<line id="XMLID_532_" class="st5" x1="-103.3" y1="6.2" x2="-100.1" y2="6.2"/>
	<line id="XMLID_447_" class="st5" x1="-103.3" y1="7.9" x2="-99.2" y2="7.9"/>
	<line id="XMLID_378_" class="st5" x1="-103.3" y1="9.7" x2="-98.6" y2="9.7"/>
	<polyline id="XMLID_377_" class="st5" points="-100.3,7.9 -99.6,7.1 -98.4,7.1 	"/>
	<polyline id="XMLID_376_" class="st5" points="-101.3,8 -100.5,8.8 -99.4,8.8 	"/>
</g>
</svg>
