<?xml version="1.0" encoding="utf-8"?>
<!-- Generator: Adobe Illustrator 19.0.0, SVG Export Plug-In . SVG Version: 6.00 Build 0)  -->
<svg version="1.1" id="Capa_1" xmlns="http://www.w3.org/2000/svg" xmlns:xlink="http://www.w3.org/1999/xlink" x="0px" y="0px"
	 viewBox="0 0 22.4 22.6" style="enable-background:new 0 0 22.4 22.6;" xml:space="preserve">
<style type="text/css">
	.st0{opacity:0.9;}
	.st1{fill:#4E4E4E;}
	.st2{opacity:0.9;fill:#4E4E4E;}
	.st3{fill:#2480A5;}
	.st4{fill:none;}
	.st5{opacity:0.9;fill:none;stroke:#4E4E4E;stroke-width:0.1739;stroke-miterlimit:10;}
</style>
<g id="XMLID_641_" class="st0">
	<path id="XMLID_642_" class="st1" d="M-91.4-4.3H-107c-1.9,0-3.4,1.5-3.4,3.4v15.6c0,1.9,1.5,3.4,3.4,3.4h15.6
		c1.9,0,3.4-1.5,3.4-3.4V-0.9C-88-2.8-89.5-4.3-91.4-4.3z M-92.8,2.7l-1.5,0c-1.2,0-1.4,0.6-1.4,1.4v1.8h2.8l-0.4,2.8h-2.4v7.2h-2.9
		V8.6h-2.4V5.8h2.4V3.8c0-2.4,1.5-3.7,3.6-3.7c1,0,1.9,0.1,2.2,0.1V2.7z"/>
</g>
<g id="XMLID_631_">
	<g id="XMLID_32_">
		<path id="XMLID_33_" class="st2" d="M-135-4.3h-15.6c-1.9,0-3.4,1.5-3.4,3.4v15.6c0,1.9,1.5,3.4,3.4,3.4h15.6
			c1.9,0,3.4-1.5,3.4-3.4V-0.9C-131.6-2.8-133.1-4.3-135-4.3z M-136.2,4.3c0,0.1,0,0.3,0,0.4c0,3.9-3,8.3-8.3,8.3
			c-1.7,0-3.2-0.5-4.5-1.3c0.2,0,0.5,0,0.7,0c1.4,0,2.6-0.5,3.6-1.3c-1.3,0-2.4-0.9-2.7-2c0.2,0,0.4,0.1,0.6,0.1
			c0.3,0,0.5,0,0.8-0.1c-1.3-0.3-2.4-1.5-2.4-2.9v0c0.4,0.2,0.8,0.4,1.3,0.4c-0.8-0.5-1.3-1.4-1.3-2.4c0-0.5,0.1-1,0.4-1.5
			c1.4,1.8,3.6,2.9,6,3.1c0-0.2-0.1-0.4-0.1-0.7c0-1.6,1.3-2.9,2.9-2.9c0.8,0,1.6,0.4,2.1,0.9c0.7-0.1,1.3-0.4,1.9-0.7
			c-0.2,0.7-0.7,1.3-1.3,1.6c0.6-0.1,1.2-0.2,1.7-0.5C-135.1,3.4-135.6,3.9-136.2,4.3z"/>
	</g>
</g>
<g id="XMLID_556_" class="st0">
	<path id="XMLID_575_" class="st1" d="M-56,0.8c-0.3,0-0.4,0.2-0.4,0.7v2c0,0.4,0.1,0.7,0.4,0.7c0.3,0,0.4-0.2,0.4-0.7v-2
		C-55.5,1-55.7,0.8-56,0.8z M-56,0.8c-0.3,0-0.4,0.2-0.4,0.7v2c0,0.4,0.1,0.7,0.4,0.7c0.3,0,0.4-0.2,0.4-0.7v-2
		C-55.5,1-55.7,0.8-56,0.8z M-61.8,7.4v0.9h1v5.5h1V8.3h1V7.4H-61.8z M-57.1,9v3.6c-0.2,0.3-0.4,0.4-0.5,0.4c-0.1,0-0.2-0.1-0.2-0.2
		c0,0,0-0.1,0-0.3V9h-0.9v3.8c0,0.3,0,0.6,0.1,0.7c0.1,0.2,0.3,0.4,0.6,0.4c0.3,0,0.6-0.2,1-0.6v0.5h0.9V9H-57.1z M-56,0.8
		c-0.3,0-0.4,0.2-0.4,0.7v2c0,0.4,0.1,0.7,0.4,0.7c0.3,0,0.4-0.2,0.4-0.7v-2C-55.5,1-55.7,0.8-56,0.8z M-53,9.5
		C-53.2,9.2-53.4,9-53.7,9c-0.3,0-0.6,0.2-0.9,0.5V7.4h-0.9v6.4h0.9v-0.5c0.3,0.4,0.6,0.5,0.9,0.5c0.3,0,0.6-0.2,0.7-0.5
		c0.1-0.2,0.1-0.5,0.1-1v-1.9C-53,10-53,9.7-53,9.5z M-53.8,12.4c0,0.4-0.1,0.6-0.4,0.6c-0.1,0-0.3-0.1-0.4-0.2V10
		c0.1-0.1,0.3-0.2,0.4-0.2c0.2,0,0.4,0.2,0.4,0.6V12.4z M-49.7,11.6v-1c0-0.5-0.1-0.9-0.3-1.1C-50.2,9.1-50.6,9-51,9
		c-0.4,0-0.8,0.2-1,0.5c-0.2,0.2-0.3,0.6-0.3,1.1v1.7c0,0.5,0.1,0.9,0.3,1.1c0.2,0.3,0.6,0.5,1,0.5c0.5,0,0.8-0.2,1-0.5
		c0.1-0.2,0.2-0.3,0.2-0.5c0-0.1,0-0.3,0-0.6v-0.1h-0.9c0,0.3,0,0.5,0,0.6c0,0.2-0.2,0.3-0.4,0.3c-0.3,0-0.4-0.2-0.4-0.7v-0.8H-49.7
		z M-51.4,10.4c0-0.4,0.1-0.7,0.4-0.7c0.3,0,0.4,0.2,0.4,0.7v0.4h-0.9V10.4z M-49.7,11.6v-1c0-0.5-0.1-0.9-0.3-1.1
		C-50.2,9.1-50.6,9-51,9c-0.4,0-0.8,0.2-1,0.5c-0.2,0.2-0.3,0.6-0.3,1.1v1.7c0,0.5,0.1,0.9,0.3,1.1c0.2,0.3,0.6,0.5,1,0.5
		c0.5,0,0.8-0.2,1-0.5c0.1-0.2,0.2-0.3,0.2-0.5c0-0.1,0-0.3,0-0.6v-0.1h-0.9c0,0.3,0,0.5,0,0.6c0,0.2-0.2,0.3-0.4,0.3
		c-0.3,0-0.4-0.2-0.4-0.7v-0.8H-49.7z M-51.4,10.4c0-0.4,0.1-0.7,0.4-0.7c0.3,0,0.4,0.2,0.4,0.7v0.4h-0.9V10.4z M-53.7,9
		c-0.3,0-0.6,0.2-0.9,0.5V7.4h-0.9v6.4h0.9v-0.5c0.3,0.4,0.6,0.5,0.9,0.5c0.3,0,0.6-0.2,0.7-0.5c0.1-0.2,0.1-0.5,0.1-1v-1.9
		c0-0.4,0-0.8-0.1-1C-53.2,9.2-53.4,9-53.7,9z M-53.8,12.4c0,0.4-0.1,0.6-0.4,0.6c-0.1,0-0.3-0.1-0.4-0.2V10
		c0.1-0.1,0.3-0.2,0.4-0.2c0.2,0,0.4,0.2,0.4,0.6V12.4z M-57.1,12.7c-0.2,0.3-0.4,0.4-0.5,0.4c-0.1,0-0.2-0.1-0.2-0.2
		c0,0,0-0.1,0-0.3V9h-0.9v3.8c0,0.3,0,0.6,0.1,0.7c0.1,0.2,0.3,0.4,0.6,0.4c0.3,0,0.6-0.2,1-0.6v0.5h0.9V9h-0.9V12.7z M-61.8,8.3h1
		v5.5h1V8.3h1V7.4h-3V8.3z M-56,0.8c-0.3,0-0.4,0.2-0.4,0.7v2c0,0.4,0.1,0.7,0.4,0.7c0.3,0,0.4-0.2,0.4-0.7v-2
		C-55.5,1-55.7,0.8-56,0.8z M-47.8-4.3h-15.6c-1.9,0-3.4,1.5-3.4,3.4v15.6c0,1.9,1.5,3.4,3.4,3.4h15.6c1.9,0,3.4-1.5,3.4-3.4V-0.9
		C-44.4-2.8-45.9-4.3-47.8-4.3z M-54,0.1h0.9v3.5c0,0.2,0,0.3,0,0.3c0,0.1,0.1,0.2,0.2,0.2c0.2,0,0.4-0.1,0.5-0.4V0.1h0.9v4.8h-0.9
		V4.4C-52.7,4.8-53,5-53.3,5c-0.3,0-0.5-0.1-0.6-0.4c0-0.1-0.1-0.4-0.1-0.7V0.1z M-57.2,1.6c0-0.5,0.1-0.9,0.3-1.1
		c0.2-0.3,0.6-0.5,1-0.5c0.4,0,0.8,0.2,1,0.5c0.2,0.2,0.3,0.6,0.3,1.1v1.7c0,0.5-0.1,0.9-0.3,1.1C-55.2,4.8-55.5,5-56,5
		c-0.4,0-0.8-0.2-1-0.5c-0.2-0.2-0.3-0.6-0.3-1.1V1.6z M-59.6-1.6l0.7,2.5l0.7-2.5h1l-1.2,3.8v2.6h-1V2.3c-0.1-0.5-0.3-1.1-0.6-2
		c-0.2-0.6-0.4-1.2-0.6-1.8H-59.6z M-48.9,14.1c-0.2,0.8-0.8,1.3-1.5,1.4c-1.8,0.2-3.6,0.2-5.3,0.2c-1.8,0-3.6,0-5.3-0.2
		c-0.7-0.1-1.4-0.6-1.5-1.4c-0.2-1.1-0.2-2.3-0.2-3.4s0-2.3,0.3-3.4c0.2-0.8,0.8-1.3,1.5-1.4c1.8-0.2,3.6-0.2,5.3-0.2
		c1.8,0,3.6,0,5.3,0.2c0.7,0.1,1.4,0.6,1.5,1.4c0.2,1.1,0.2,2.3,0.2,3.4S-48.6,13-48.9,14.1z M-51,9c-0.4,0-0.8,0.2-1,0.5
		c-0.2,0.2-0.3,0.6-0.3,1.1v1.7c0,0.5,0.1,0.9,0.3,1.1c0.2,0.3,0.6,0.5,1,0.5c0.5,0,0.8-0.2,1-0.5c0.1-0.2,0.2-0.3,0.2-0.5
		c0-0.1,0-0.3,0-0.6v-0.1h-0.9c0,0.3,0,0.5,0,0.6c0,0.2-0.2,0.3-0.4,0.3c-0.3,0-0.4-0.2-0.4-0.7v-0.8h1.7v-1c0-0.5-0.1-0.9-0.3-1.1
		C-50.2,9.1-50.6,9-51,9z M-50.6,10.9h-0.9v-0.4c0-0.4,0.1-0.7,0.4-0.7c0.3,0,0.4,0.2,0.4,0.7V10.9z M-53.7,9
		c-0.3,0-0.6,0.2-0.9,0.5V7.4h-0.9v6.4h0.9v-0.5c0.3,0.4,0.6,0.5,0.9,0.5c0.3,0,0.6-0.2,0.7-0.5c0.1-0.2,0.1-0.5,0.1-1v-1.9
		c0-0.4,0-0.8-0.1-1C-53.2,9.2-53.4,9-53.7,9z M-53.8,12.4c0,0.4-0.1,0.6-0.4,0.6c-0.1,0-0.3-0.1-0.4-0.2V10
		c0.1-0.1,0.3-0.2,0.4-0.2c0.2,0,0.4,0.2,0.4,0.6V12.4z M-56,4.2c0.3,0,0.4-0.2,0.4-0.7v-2c0-0.4-0.1-0.7-0.4-0.7
		c-0.3,0-0.4,0.2-0.4,0.7v2C-56.4,3.9-56.2,4.2-56,4.2z M-57.1,12.7c-0.2,0.3-0.4,0.4-0.5,0.4c-0.1,0-0.2-0.1-0.2-0.2
		c0,0,0-0.1,0-0.3V9h-0.9v3.8c0,0.3,0,0.6,0.1,0.7c0.1,0.2,0.3,0.4,0.6,0.4c0.3,0,0.6-0.2,1-0.6v0.5h0.9V9h-0.9V12.7z M-61.8,8.3h1
		v5.5h1V8.3h1V7.4h-3V8.3z M-56,0.8c-0.3,0-0.4,0.2-0.4,0.7v2c0,0.4,0.1,0.7,0.4,0.7c0.3,0,0.4-0.2,0.4-0.7v-2
		C-55.5,1-55.7,0.8-56,0.8z M-61.8,7.4v0.9h1v5.5h1V8.3h1V7.4H-61.8z M-57.1,9v3.6c-0.2,0.3-0.4,0.4-0.5,0.4c-0.1,0-0.2-0.1-0.2-0.2
		c0,0,0-0.1,0-0.3V9h-0.9v3.8c0,0.3,0,0.6,0.1,0.7c0.1,0.2,0.3,0.4,0.6,0.4c0.3,0,0.6-0.2,1-0.6v0.5h0.9V9H-57.1z M-53,9.5
		C-53.2,9.2-53.4,9-53.7,9c-0.3,0-0.6,0.2-0.9,0.5V7.4h-0.9v6.4h0.9v-0.5c0.3,0.4,0.6,0.5,0.9,0.5c0.3,0,0.6-0.2,0.7-0.5
		c0.1-0.2,0.1-0.5,0.1-1v-1.9C-53,10-53,9.7-53,9.5z M-53.8,12.4c0,0.4-0.1,0.6-0.4,0.6c-0.1,0-0.3-0.1-0.4-0.2V10
		c0.1-0.1,0.3-0.2,0.4-0.2c0.2,0,0.4,0.2,0.4,0.6V12.4z M-49.7,11.6v-1c0-0.5-0.1-0.9-0.3-1.1C-50.2,9.1-50.6,9-51,9
		c-0.4,0-0.8,0.2-1,0.5c-0.2,0.2-0.3,0.6-0.3,1.1v1.7c0,0.5,0.1,0.9,0.3,1.1c0.2,0.3,0.6,0.5,1,0.5c0.5,0,0.8-0.2,1-0.5
		c0.1-0.2,0.2-0.3,0.2-0.5c0-0.1,0-0.3,0-0.6v-0.1h-0.9c0,0.3,0,0.5,0,0.6c0,0.2-0.2,0.3-0.4,0.3c-0.3,0-0.4-0.2-0.4-0.7v-0.8H-49.7
		z M-51.4,10.4c0-0.4,0.1-0.7,0.4-0.7c0.3,0,0.4,0.2,0.4,0.7v0.4h-0.9V10.4z M-49.7,11.6v-1c0-0.5-0.1-0.9-0.3-1.1
		C-50.2,9.1-50.6,9-51,9c-0.4,0-0.8,0.2-1,0.5c-0.2,0.2-0.3,0.6-0.3,1.1v1.7c0,0.5,0.1,0.9,0.3,1.1c0.2,0.3,0.6,0.5,1,0.5
		c0.5,0,0.8-0.2,1-0.5c0.1-0.2,0.2-0.3,0.2-0.5c0-0.1,0-0.3,0-0.6v-0.1h-0.9c0,0.3,0,0.5,0,0.6c0,0.2-0.2,0.3-0.4,0.3
		c-0.3,0-0.4-0.2-0.4-0.7v-0.8H-49.7z M-51.4,10.4c0-0.4,0.1-0.7,0.4-0.7c0.3,0,0.4,0.2,0.4,0.7v0.4h-0.9V10.4z M-53,9.5
		C-53.2,9.2-53.4,9-53.7,9c-0.3,0-0.6,0.2-0.9,0.5V7.4h-0.9v6.4h0.9v-0.5c0.3,0.4,0.6,0.5,0.9,0.5c0.3,0,0.6-0.2,0.7-0.5
		c0.1-0.2,0.1-0.5,0.1-1v-1.9C-53,10-53,9.7-53,9.5z M-53.8,12.4c0,0.4-0.1,0.6-0.4,0.6c-0.1,0-0.3-0.1-0.4-0.2V10
		c0.1-0.1,0.3-0.2,0.4-0.2c0.2,0,0.4,0.2,0.4,0.6V12.4z M-56,0.8c-0.3,0-0.4,0.2-0.4,0.7v2c0,0.4,0.1,0.7,0.4,0.7
		c0.3,0,0.4-0.2,0.4-0.7v-2C-55.5,1-55.7,0.8-56,0.8z M-57.1,9v3.6c-0.2,0.3-0.4,0.4-0.5,0.4c-0.1,0-0.2-0.1-0.2-0.2
		c0,0,0-0.1,0-0.3V9h-0.9v3.8c0,0.3,0,0.6,0.1,0.7c0.1,0.2,0.3,0.4,0.6,0.4c0.3,0,0.6-0.2,1-0.6v0.5h0.9V9H-57.1z M-61.8,7.4v0.9h1
		v5.5h1V8.3h1V7.4H-61.8z M-56,0.8c-0.3,0-0.4,0.2-0.4,0.7v2c0,0.4,0.1,0.7,0.4,0.7c0.3,0,0.4-0.2,0.4-0.7v-2
		C-55.5,1-55.7,0.8-56,0.8z M-56,0.8c-0.3,0-0.4,0.2-0.4,0.7v2c0,0.4,0.1,0.7,0.4,0.7c0.3,0,0.4-0.2,0.4-0.7v-2
		C-55.5,1-55.7,0.8-56,0.8z"/>
	<polygon id="XMLID_574_" class="st1" points="-61.8,7.4 -58.8,7.4 -58.8,8.3 -59.9,8.3 -59.9,13.8 -60.8,13.8 -60.8,8.3 -61.8,8.3 
			"/>
	<path id="XMLID_573_" class="st1" d="M-57.1,9h0.9v4.7h-0.9v-0.5c-0.3,0.4-0.7,0.6-1,0.6c-0.3,0-0.5-0.1-0.6-0.4
		c0-0.1-0.1-0.4-0.1-0.7V9h0.9v3.5c0,0.2,0,0.3,0,0.3c0,0.1,0.1,0.2,0.2,0.2c0.2,0,0.4-0.1,0.5-0.4V9z"/>
	<path id="XMLID_569_" class="st1" d="M-53,9.5C-53.2,9.2-53.4,9-53.7,9c-0.3,0-0.6,0.2-0.9,0.5V7.4h-0.9v6.4h0.9v-0.5
		c0.3,0.4,0.6,0.5,0.9,0.5c0.3,0,0.6-0.2,0.7-0.5c0.1-0.2,0.1-0.5,0.1-1v-1.9C-53,10-53,9.7-53,9.5z M-53.8,12.4
		c0,0.4-0.1,0.6-0.4,0.6c-0.1,0-0.3-0.1-0.4-0.2V10c0.1-0.1,0.3-0.2,0.4-0.2c0.2,0,0.4,0.2,0.4,0.6V12.4z"/>
	<path id="XMLID_566_" class="st1" d="M-49.7,11.6v-1c0-0.5-0.1-0.9-0.3-1.1C-50.2,9.1-50.6,9-51,9c-0.4,0-0.8,0.2-1,0.5
		c-0.2,0.2-0.3,0.6-0.3,1.1v1.7c0,0.5,0.1,0.9,0.3,1.1c0.2,0.3,0.6,0.5,1,0.5c0.5,0,0.8-0.2,1-0.5c0.1-0.2,0.2-0.3,0.2-0.5
		c0-0.1,0-0.3,0-0.6v-0.1h-0.9c0,0.3,0,0.5,0,0.6c0,0.2-0.2,0.3-0.4,0.3c-0.3,0-0.4-0.2-0.4-0.7v-0.8H-49.7z M-51.4,10.4
		c0-0.4,0.1-0.7,0.4-0.7c0.3,0,0.4,0.2,0.4,0.7v0.4h-0.9V10.4z"/>
	<path id="XMLID_557_" class="st1" d="M-61.8,7.4v0.9h1v5.5h1V8.3h1V7.4H-61.8z M-57.1,9v3.6c-0.2,0.3-0.4,0.4-0.5,0.4
		c-0.1,0-0.2-0.1-0.2-0.2c0,0,0-0.1,0-0.3V9h-0.9v3.8c0,0.3,0,0.6,0.1,0.7c0.1,0.2,0.3,0.4,0.6,0.4c0.3,0,0.6-0.2,1-0.6v0.5h0.9V9
		H-57.1z M-53,9.5C-53.2,9.2-53.4,9-53.7,9c-0.3,0-0.6,0.2-0.9,0.5V7.4h-0.9v6.4h0.9v-0.5c0.3,0.4,0.6,0.5,0.9,0.5
		c0.3,0,0.6-0.2,0.7-0.5c0.1-0.2,0.1-0.5,0.1-1v-1.9C-53,10-53,9.7-53,9.5z M-53.8,12.4c0,0.4-0.1,0.6-0.4,0.6
		c-0.1,0-0.3-0.1-0.4-0.2V10c0.1-0.1,0.3-0.2,0.4-0.2c0.2,0,0.4,0.2,0.4,0.6V12.4z M-49.7,11.6v-1c0-0.5-0.1-0.9-0.3-1.1
		C-50.2,9.1-50.6,9-51,9c-0.4,0-0.8,0.2-1,0.5c-0.2,0.2-0.3,0.6-0.3,1.1v1.7c0,0.5,0.1,0.9,0.3,1.1c0.2,0.3,0.6,0.5,1,0.5
		c0.5,0,0.8-0.2,1-0.5c0.1-0.2,0.2-0.3,0.2-0.5c0-0.1,0-0.3,0-0.6v-0.1h-0.9c0,0.3,0,0.5,0,0.6c0,0.2-0.2,0.3-0.4,0.3
		c-0.3,0-0.4-0.2-0.4-0.7v-0.8H-49.7z M-51.4,10.4c0-0.4,0.1-0.7,0.4-0.7c0.3,0,0.4,0.2,0.4,0.7v0.4h-0.9V10.4z"/>
</g>
<g id="XMLID_548_">
	<path id="XMLID_555_" class="st1" d="M22.4,8.1C22.4,8.1,22.4,8.1,22.4,8.1c0,3.7,0,7.2,0,10.8c0,0,0,0,0,0.1
		c-0.1,0.5-0.3,0.9-0.5,1.3c-0.4,0.8-1.1,1.4-1.8,1.8c-0.3,0.2-0.7,0.3-1,0.4c0,0,0,0,0,0c-0.2,0.1-0.3,0.1-0.5,0.1
		c-4.9,0-9.8,0-14.7,0c-0.1,0-0.1,0-0.2,0c-0.3-0.1-0.6-0.2-0.8-0.3c-0.4-0.1-0.7-0.4-1.1-0.7c-0.3-0.3-0.6-0.6-0.8-0.9
		c-0.3-0.4-0.5-0.9-0.7-1.4c0,0,0-0.1,0-0.1C0.1,19.1,0,18.9,0,18.7c0-3.5,0-7,0-10.6c0,0,0-0.1,0-0.1c0,0,0,0,0.1,0
		c1.7,0,3.5,0,5.2,0c0.4,0,0.7,0,1.1,0c0.1,0,0.1,0,0.2,0c0.1,0,0.1,0,0,0.1C6.6,8.3,6.5,8.5,6.4,8.6c-0.4,0.6-0.6,1.2-0.7,1.9
		c0,0.2-0.1,0.4-0.1,0.7c0,0.3,0,0.7,0,1c0,0.5,0.2,0.9,0.4,1.4c0.2,0.4,0.4,0.9,0.7,1.3c0.5,0.7,1.1,1.2,1.8,1.6
		c0.5,0.3,1,0.5,1.6,0.6c0.5,0.1,0.9,0.2,1.4,0.1c1.1-0.1,2-0.4,2.9-1c1.1-0.8,1.9-1.9,2.2-3.2c0.1-0.5,0.2-1,0.2-1.6
		c0-1-0.3-1.9-0.9-2.7c-0.1-0.1-0.1-0.2-0.2-0.3c0-0.1,0-0.1,0.1-0.1c0.2,0,0.3,0,0.5,0C18.4,8.1,20.4,8.1,22.4,8.1
		C22.4,8.1,22.4,8.1,22.4,8.1z"/>
	<path id="XMLID_552_" class="st1" d="M0,7.5C0,7.5,0,7.5,0,7.5c0-1,0-1.9,0-2.9c0-0.3,0-0.7,0.1-1c0-0.2,0.1-0.4,0.2-0.7
		c0.1-0.2,0.2-0.5,0.3-0.7C0.8,2,0.9,1.8,1.1,1.7C1.3,1.4,1.6,1.2,1.8,1c0,0,0.1,0,0.1-0.1C1.9,0.9,2,0.9,2,1c0,0.1,0,0.3,0,0.4
		c0,1,0,2,0,3c0,0.3,0,0.6,0,0.9c0,0,0,0.1,0,0.1c0,0.1,0,0.1,0.2,0.2c0.1,0,0.2,0,0.2,0c0.1,0,0.2,0,0.3,0c0,0,0,0,0-0.1
		c0-1.6,0-3.2,0-4.9c0-0.1,0-0.2,0-0.2c0,0,0,0,0-0.1C3,0.4,3.2,0.3,3.3,0.2c0.1,0,0.2,0,0.2,0.1c0,0.1,0,0.2,0,0.3
		c0,0.3,0,0.6,0,0.9c0,1.1,0,2.3,0,3.4c0,0.2,0,0.4,0,0.6c0,0.1,0,0.1,0.1,0.1c0.1,0,0.2,0,0.3,0c0.1,0,0.1,0,0.2,0c0,0,0,0,0,0
		c0-0.1,0-0.2,0-0.3c0-1.7,0-3.4,0-5c0,0,0,0,0-0.1c0.3,0,0.5,0,0.8,0c0,0,0,0,0,0.1c0,1.5,0,3,0,4.4c0,0.3,0,0.5,0,0.8
		c0,0.1,0,0.2,0.2,0.2c0.2,0,0.3,0,0.5,0c0-1.8,0-3.7,0-5.5c0.1,0,0.2,0,0.3,0c1.1,0,2.2,0,3.4,0c1.7,0,3.3,0,5,0c1.4,0,2.8,0,4.2,0
		c0.1,0,0.3,0,0.4,0.1c0.3,0.1,0.6,0.2,0.9,0.3c0.4,0.2,0.7,0.4,1,0.7c0.3,0.3,0.7,0.7,0.9,1.1c0.3,0.4,0.4,0.9,0.5,1.3
		c0,0.2,0,0.4,0,0.5c0,0.8,0,1.5,0,2.3c0,0.3,0,0.7,0,1c0,0,0,0,0,0.1c0,0,0,0-0.1,0c-2.4,0-4.7,0-7.1,0c0,0-0.1,0-0.1,0
		c-0.4-0.3-0.8-0.6-1.2-0.9c-0.5-0.3-1-0.5-1.6-0.6c-0.4-0.1-0.9-0.1-1.4-0.1c-0.7,0-1.4,0.2-2.1,0.5C8.4,6.6,7.9,7,7.4,7.4
		c0,0-0.1,0.1-0.1,0.1c0,0.1-0.1,0.1-0.1,0.1c-0.4,0-0.8,0-1.3,0C4,7.5,2,7.5,0,7.5C0,7.5,0,7.5,0,7.5z M18.3,2.1L18.3,2.1
		c-0.4,0-0.8,0-1.2,0c0,0-0.1,0-0.1,0c-0.1,0.1-0.2,0.2-0.3,0.3c0,0,0,0.1,0,0.1c0,0.7,0,1.4,0,2c0,0.2,0,0.4,0,0.6
		c0.1,0.3,0.2,0.5,0.5,0.5c0.2,0,0.3,0,0.5,0c0.5,0,0.9,0,1.4,0c0.2,0,0.4,0,0.7,0c0.3,0,0.5-0.2,0.5-0.5c0-0.2,0-0.4,0-0.6
		c0-0.5,0-1.1,0-1.6c0-0.2,0-0.3-0.1-0.5c-0.1-0.2-0.2-0.3-0.4-0.3c-0.1,0-0.2,0-0.3,0C19,2.1,18.7,2.1,18.3,2.1z"/>
	<path id="XMLID_549_" class="st1" d="M15.7,11.4c0,0.6-0.1,1.2-0.3,1.7c-0.4,1-1.1,1.8-2,2.3c-0.5,0.2-0.9,0.4-1.5,0.5
		c-0.4,0.1-0.8,0.1-1.2,0c-0.5,0-1-0.2-1.4-0.4c-0.4-0.2-0.7-0.4-1-0.7c-0.3-0.3-0.7-0.6-0.9-1c-0.3-0.4-0.5-0.9-0.6-1.4
		c-0.1-0.4-0.1-0.8-0.1-1.2c0-0.9,0.3-1.7,0.8-2.4c0.6-0.8,1.3-1.3,2.2-1.7C10.2,7.1,10.7,7,11.2,7c0.3,0,0.6,0,0.9,0.1
		c0.9,0.2,1.6,0.6,2.3,1.2c0.2,0.3,0.5,0.5,0.7,0.8c0.2,0.4,0.4,0.8,0.5,1.2C15.6,10.6,15.7,11,15.7,11.4z M11.2,14.6
		c0.1,0,0.2,0,0.4,0c0.4-0.1,0.8-0.2,1.1-0.4c0.6-0.3,1.1-0.8,1.4-1.5c0.1-0.3,0.2-0.7,0.2-1c0-0.3,0-0.6-0.1-0.9
		c-0.1-0.5-0.3-0.9-0.6-1.3C13.5,9.3,13.2,9,13,8.9c-0.3-0.2-0.6-0.3-0.9-0.4c-0.3-0.1-0.5-0.1-0.8-0.2c-0.4,0-0.9,0.1-1.3,0.3
		C8.9,9.1,8.2,10,8.1,11.2c0,0.5,0,0.9,0.2,1.3c0.3,0.8,0.9,1.4,1.7,1.8C10.4,14.5,10.8,14.6,11.2,14.6z"/>
</g>
<g id="XMLID_375_">
	<path id="XMLID_541_" class="st2" d="M-176.2,2.2c0.1,0.4,0.1,0.7,0.1,1.1c0,3.3-2.7,6-6,6c-3.3,0-6-2.7-6-6c0-3.3,2.7-6,6-6
		c0.7,0,1.4,0.1,2,0.4c-1.8-1.2-3.9-1.9-6.3-1.9c-6.2,0-11.2,5-11.2,11.2c0,3.1,1.2,5.9,3.3,7.9l0.3-0.8l1.1,1.1l-0.8,0.2
		c2,1.8,4.6,2.8,7.4,2.8c6.2,0,11.2-5,11.2-11.2C-175.2,5.2-175.5,3.6-176.2,2.2z M-186.1,8.8l-6,5.5c-0.2,0.2-0.6,0-0.9-0.3
		c-0.2-0.2-0.3-0.5-0.3-0.7c0-0.1,0-0.2,0.1-0.3l6-5.5c0.2-0.2,0.6,0,0.9,0.3C-186,8.2-185.9,8.6-186.1,8.8z M-183.9,1.3
		c-0.3,0-0.5,0.2-0.5,0.5c0,0.3,0.2,0.5,0.5,0.5c0.3,0,0.5-0.2,0.5-0.5C-183.4,1.5-183.6,1.3-183.9,1.3z M-183.9,3
		c-0.3,0-0.5,0.2-0.5,0.5c0,0.3,0.2,0.5,0.5,0.5c0.3,0,0.5-0.2,0.5-0.5C-183.4,3.3-183.6,3-183.9,3z M-183.9,4.8
		c-0.3,0-0.5,0.2-0.5,0.5c0,0.3,0.2,0.5,0.5,0.5c0.3,0,0.5-0.2,0.5-0.5C-183.4,5-183.6,4.8-183.9,4.8z"/>
	<g id="XMLID_536_">
		<circle id="XMLID_540_" class="st3" cx="-183.9" cy="5.3" r="0.5"/>
		<circle id="XMLID_539_" class="st3" cx="-183.9" cy="3.5" r="0.5"/>
		<circle id="XMLID_538_" class="st3" cx="-183.9" cy="1.8" r="0.5"/>
		<line id="XMLID_537_" class="st4" x1="-193.7" y1="15.2" x2="-194.2" y2="14.8"/>
	</g>
	<circle id="XMLID_535_" class="st2" cx="-183.9" cy="1.8" r="0.5"/>
	<circle id="XMLID_534_" class="st2" cx="-183.9" cy="3.5" r="0.5"/>
	<circle id="XMLID_533_" class="st2" cx="-183.9" cy="5.3" r="0.5"/>
	<line id="XMLID_532_" class="st5" x1="-183.5" y1="1.8" x2="-180.3" y2="1.8"/>
	<line id="XMLID_447_" class="st5" x1="-183.5" y1="3.5" x2="-179.5" y2="3.5"/>
	<line id="XMLID_378_" class="st5" x1="-183.5" y1="5.3" x2="-178.8" y2="5.3"/>
	<polyline id="XMLID_377_" class="st5" points="-180.5,3.5 -179.8,2.7 -178.6,2.7 	"/>
	<polyline id="XMLID_376_" class="st5" points="-181.5,3.6 -180.8,4.4 -179.6,4.4 	"/>
</g>
</svg>
