<?xml version="1.0" encoding="utf-8"?>
<!-- Generator: Adobe Illustrator 19.0.0, SVG Export Plug-In . SVG Version: 6.00 Build 0)  -->
<svg version="1.1" id="Capa_1" xmlns="http://www.w3.org/2000/svg" xmlns:xlink="http://www.w3.org/1999/xlink" x="0px" y="0px"
	 viewBox="0 0 22.4 22.6" style="enable-background:new 0 0 22.4 22.6;" xml:space="preserve">
<style type="text/css">
	.st0{opacity:0.9;}
	.st1{fill:#4E4E4E;}
	.st2{opacity:0.9;fill:#4E4E4E;}
	.st3{fill:#2480A5;}
	.st4{fill:none;}
	.st5{opacity:0.9;fill:none;stroke:#4E4E4E;stroke-width:0.1739;stroke-miterlimit:10;}
</style>
<g id="XMLID_641_" class="st0">
	<path id="XMLID_642_" class="st1" d="M-91.4-4.3H-107c-1.9,0-3.4,1.5-3.4,3.4v15.6c0,1.9,1.5,3.4,3.4,3.4h15.6
		c1.9,0,3.4-1.5,3.4-3.4V-0.9C-88-2.8-89.5-4.3-91.4-4.3z M-92.8,2.7l-1.5,0c-1.2,0-1.4,0.6-1.4,1.4v1.8h2.8l-0.4,2.8h-2.4v7.2h-2.9
		V8.6h-2.4V5.8h2.4V3.8c0-2.4,1.5-3.7,3.6-3.7c1,0,1.9,0.1,2.2,0.1V2.7z"/>
</g>
<g id="XMLID_631_">
	<g id="XMLID_32_">
		<path id="XMLID_33_" class="st2" d="M-135-4.3h-15.6c-1.9,0-3.4,1.5-3.4,3.4v15.6c0,1.9,1.5,3.4,3.4,3.4h15.6
			c1.9,0,3.4-1.5,3.4-3.4V-0.9C-131.6-2.8-133.1-4.3-135-4.3z M-136.2,4.3c0,0.1,0,0.3,0,0.4c0,3.9-3,8.3-8.3,8.3
			c-1.7,0-3.2-0.5-4.5-1.3c0.2,0,0.5,0,0.7,0c1.4,0,2.6-0.5,3.6-1.3c-1.3,0-2.4-0.9-2.7-2c0.2,0,0.4,0.1,0.6,0.1
			c0.3,0,0.5,0,0.8-0.1c-1.3-0.3-2.4-1.5-2.4-2.9v0c0.4,0.2,0.8,0.4,1.3,0.4c-0.8-0.5-1.3-1.4-1.3-2.4c0-0.5,0.1-1,0.4-1.5
			c1.4,1.8,3.6,2.9,6,3.1c0-0.2-0.1-0.4-0.1-0.7c0-1.6,1.3-2.9,2.9-2.9c0.8,0,1.6,0.4,2.1,0.9c0.7-0.1,1.3-0.4,1.9-0.7
			c-0.2,0.7-0.7,1.3-1.3,1.6c0.6-0.1,1.2-0.2,1.7-0.5C-135.1,3.4-135.6,3.9-136.2,4.3z"/>
	</g>
</g>
<g id="XMLID_556_" class="st0">
	<path id="XMLID_575_" class="st1" d="M10.9,5.2c-0.3,0-0.4,0.2-0.4,0.7v2c0,0.4,0.1,0.7,0.4,0.7s0.4-0.2,0.4-0.7v-2
		C11.3,5.4,11.2,5.2,10.9,5.2z M10.9,5.2c-0.3,0-0.4,0.2-0.4,0.7v2c0,0.4,0.1,0.7,0.4,0.7s0.4-0.2,0.4-0.7v-2
		C11.3,5.4,11.2,5.2,10.9,5.2z M5,11.8v0.9h1v5.5h1v-5.5h1v-0.9H5z M9.8,13.4v3.6c-0.2,0.3-0.4,0.4-0.5,0.4c-0.1,0-0.2-0.1-0.2-0.2
		c0,0,0-0.1,0-0.3v-3.5H8.1v3.8c0,0.3,0,0.6,0.1,0.7c0.1,0.2,0.3,0.4,0.6,0.4c0.3,0,0.6-0.2,1-0.6v0.5h0.9v-4.7H9.8z M10.9,5.2
		c-0.3,0-0.4,0.2-0.4,0.7v2c0,0.4,0.1,0.7,0.4,0.7s0.4-0.2,0.4-0.7v-2C11.3,5.4,11.2,5.2,10.9,5.2z M13.8,13.9
		c-0.1-0.4-0.3-0.5-0.7-0.5c-0.3,0-0.6,0.2-0.9,0.5v-2.1h-0.9v6.4h0.9v-0.5c0.3,0.4,0.6,0.5,0.9,0.5c0.3,0,0.6-0.2,0.7-0.5
		c0.1-0.2,0.1-0.5,0.1-1v-1.9C13.9,14.4,13.9,14.1,13.8,13.9z M13,16.8c0,0.4-0.1,0.6-0.4,0.6c-0.1,0-0.3-0.1-0.4-0.2v-2.9
		c0.1-0.1,0.3-0.2,0.4-0.2c0.2,0,0.4,0.2,0.4,0.6V16.8z M17.1,16v-1c0-0.5-0.1-0.9-0.3-1.1c-0.2-0.3-0.6-0.5-1-0.5
		c-0.4,0-0.8,0.2-1,0.5c-0.2,0.2-0.3,0.6-0.3,1.1v1.7c0,0.5,0.1,0.9,0.3,1.1c0.2,0.3,0.6,0.5,1,0.5s0.8-0.2,1-0.5
		c0.1-0.2,0.2-0.3,0.2-0.5c0-0.1,0-0.3,0-0.6v-0.1h-0.9c0,0.3,0,0.5,0,0.6c0,0.2-0.2,0.3-0.4,0.3c-0.3,0-0.4-0.2-0.4-0.7V16H17.1z
		 M15.4,14.8c0-0.4,0.1-0.7,0.4-0.7c0.3,0,0.4,0.2,0.4,0.7v0.4h-0.9V14.8z M17.1,16v-1c0-0.5-0.1-0.9-0.3-1.1
		c-0.2-0.3-0.6-0.5-1-0.5c-0.4,0-0.8,0.2-1,0.5c-0.2,0.2-0.3,0.6-0.3,1.1v1.7c0,0.5,0.1,0.9,0.3,1.1c0.2,0.3,0.6,0.5,1,0.5
		s0.8-0.2,1-0.5c0.1-0.2,0.2-0.3,0.2-0.5c0-0.1,0-0.3,0-0.6v-0.1h-0.9c0,0.3,0,0.5,0,0.6c0,0.2-0.2,0.3-0.4,0.3
		c-0.3,0-0.4-0.2-0.4-0.7V16H17.1z M15.4,14.8c0-0.4,0.1-0.7,0.4-0.7c0.3,0,0.4,0.2,0.4,0.7v0.4h-0.9V14.8z M13.1,13.4
		c-0.3,0-0.6,0.2-0.9,0.5v-2.1h-0.9v6.4h0.9v-0.5c0.3,0.4,0.6,0.5,0.9,0.5c0.3,0,0.6-0.2,0.7-0.5c0.1-0.2,0.1-0.5,0.1-1v-1.9
		c0-0.4,0-0.8-0.1-1C13.7,13.6,13.5,13.4,13.1,13.4z M13,16.8c0,0.4-0.1,0.6-0.4,0.6c-0.1,0-0.3-0.1-0.4-0.2v-2.9
		c0.1-0.1,0.3-0.2,0.4-0.2c0.2,0,0.4,0.2,0.4,0.6V16.8z M9.8,17.1c-0.2,0.3-0.4,0.4-0.5,0.4c-0.1,0-0.2-0.1-0.2-0.2c0,0,0-0.1,0-0.3
		v-3.5H8.1v3.8c0,0.3,0,0.6,0.1,0.7c0.1,0.2,0.3,0.4,0.6,0.4c0.3,0,0.6-0.2,1-0.6v0.5h0.9v-4.7H9.8V17.1z M5,12.7h1v5.5h1v-5.5h1
		v-0.9H5V12.7z M10.9,5.2c-0.3,0-0.4,0.2-0.4,0.7v2c0,0.4,0.1,0.7,0.4,0.7s0.4-0.2,0.4-0.7v-2C11.3,5.4,11.2,5.2,10.9,5.2z M19,0.1
		H3.4C1.5,0.1,0,1.6,0,3.5v15.6c0,1.9,1.5,3.4,3.4,3.4H19c1.9,0,3.4-1.5,3.4-3.4V3.5C22.4,1.6,20.9,0.1,19,0.1z M12.9,4.5h0.9V8
		c0,0.2,0,0.3,0,0.3c0,0.1,0.1,0.2,0.2,0.2c0.2,0,0.4-0.1,0.5-0.4V4.5h0.9v4.8h-0.9V8.8c-0.3,0.4-0.7,0.6-1,0.6
		C13.2,9.3,13,9.2,13,9c0-0.1-0.1-0.4-0.1-0.7V4.5z M9.6,6c0-0.5,0.1-0.9,0.3-1.1c0.2-0.3,0.6-0.5,1-0.5c0.4,0,0.8,0.2,1,0.5
		c0.2,0.2,0.3,0.6,0.3,1.1v1.7c0,0.5-0.1,0.9-0.3,1.1c-0.2,0.3-0.6,0.5-1,0.5c-0.4,0-0.8-0.2-1-0.5C9.7,8.6,9.6,8.2,9.6,7.7V6z
		 M7.3,2.8l0.7,2.5l0.7-2.5h1L8.4,6.7v2.6h-1V6.7c-0.1-0.5-0.3-1.1-0.6-2C6.7,4,6.5,3.4,6.2,2.8H7.3z M17.9,18.5
		c-0.2,0.8-0.8,1.3-1.5,1.4c-1.8,0.2-3.6,0.2-5.3,0.2c-1.8,0-3.6,0-5.3-0.2c-0.7-0.1-1.4-0.6-1.5-1.4C4,17.4,4,16.2,4,15.1
		s0-2.3,0.3-3.4C4.4,11,5,10.4,5.7,10.3c1.8-0.2,3.6-0.2,5.3-0.2s3.6,0,5.3,0.2c0.7,0.1,1.4,0.6,1.5,1.4c0.2,1.1,0.2,2.3,0.2,3.4
		S18.2,17.4,17.9,18.5z M15.8,13.4c-0.4,0-0.8,0.2-1,0.5c-0.2,0.2-0.3,0.6-0.3,1.1v1.7c0,0.5,0.1,0.9,0.3,1.1c0.2,0.3,0.6,0.5,1,0.5
		s0.8-0.2,1-0.5c0.1-0.2,0.2-0.3,0.2-0.5c0-0.1,0-0.3,0-0.6v-0.1h-0.9c0,0.3,0,0.5,0,0.6c0,0.2-0.2,0.3-0.4,0.3
		c-0.3,0-0.4-0.2-0.4-0.7V16h1.7v-1c0-0.5-0.1-0.9-0.3-1.1C16.6,13.5,16.3,13.4,15.8,13.4z M16.3,15.3h-0.9v-0.4
		c0-0.4,0.1-0.7,0.4-0.7c0.3,0,0.4,0.2,0.4,0.7V15.3z M13.1,13.4c-0.3,0-0.6,0.2-0.9,0.5v-2.1h-0.9v6.4h0.9v-0.5
		c0.3,0.4,0.6,0.5,0.9,0.5c0.3,0,0.6-0.2,0.7-0.5c0.1-0.2,0.1-0.5,0.1-1v-1.9c0-0.4,0-0.8-0.1-1C13.7,13.6,13.5,13.4,13.1,13.4z
		 M13,16.8c0,0.4-0.1,0.6-0.4,0.6c-0.1,0-0.3-0.1-0.4-0.2v-2.9c0.1-0.1,0.3-0.2,0.4-0.2c0.2,0,0.4,0.2,0.4,0.6V16.8z M10.9,8.6
		c0.3,0,0.4-0.2,0.4-0.7v-2c0-0.4-0.1-0.7-0.4-0.7s-0.4,0.2-0.4,0.7v2C10.5,8.3,10.6,8.6,10.9,8.6z M9.8,17.1
		c-0.2,0.3-0.4,0.4-0.5,0.4c-0.1,0-0.2-0.1-0.2-0.2c0,0,0-0.1,0-0.3v-3.5H8.1v3.8c0,0.3,0,0.6,0.1,0.7c0.1,0.2,0.3,0.4,0.6,0.4
		c0.3,0,0.6-0.2,1-0.6v0.5h0.9v-4.7H9.8V17.1z M5,12.7h1v5.5h1v-5.5h1v-0.9H5V12.7z M10.9,5.2c-0.3,0-0.4,0.2-0.4,0.7v2
		c0,0.4,0.1,0.7,0.4,0.7s0.4-0.2,0.4-0.7v-2C11.3,5.4,11.2,5.2,10.9,5.2z M5,11.8v0.9h1v5.5h1v-5.5h1v-0.9H5z M9.8,13.4v3.6
		c-0.2,0.3-0.4,0.4-0.5,0.4c-0.1,0-0.2-0.1-0.2-0.2c0,0,0-0.1,0-0.3v-3.5H8.1v3.8c0,0.3,0,0.6,0.1,0.7c0.1,0.2,0.3,0.4,0.6,0.4
		c0.3,0,0.6-0.2,1-0.6v0.5h0.9v-4.7H9.8z M13.8,13.9c-0.1-0.4-0.3-0.5-0.7-0.5c-0.3,0-0.6,0.2-0.9,0.5v-2.1h-0.9v6.4h0.9v-0.5
		c0.3,0.4,0.6,0.5,0.9,0.5c0.3,0,0.6-0.2,0.7-0.5c0.1-0.2,0.1-0.5,0.1-1v-1.9C13.9,14.4,13.9,14.1,13.8,13.9z M13,16.8
		c0,0.4-0.1,0.6-0.4,0.6c-0.1,0-0.3-0.1-0.4-0.2v-2.9c0.1-0.1,0.3-0.2,0.4-0.2c0.2,0,0.4,0.2,0.4,0.6V16.8z M17.1,16v-1
		c0-0.5-0.1-0.9-0.3-1.1c-0.2-0.3-0.6-0.5-1-0.5c-0.4,0-0.8,0.2-1,0.5c-0.2,0.2-0.3,0.6-0.3,1.1v1.7c0,0.5,0.1,0.9,0.3,1.1
		c0.2,0.3,0.6,0.5,1,0.5s0.8-0.2,1-0.5c0.1-0.2,0.2-0.3,0.2-0.5c0-0.1,0-0.3,0-0.6v-0.1h-0.9c0,0.3,0,0.5,0,0.6
		c0,0.2-0.2,0.3-0.4,0.3c-0.3,0-0.4-0.2-0.4-0.7V16H17.1z M15.4,14.8c0-0.4,0.1-0.7,0.4-0.7c0.3,0,0.4,0.2,0.4,0.7v0.4h-0.9V14.8z
		 M17.1,16v-1c0-0.5-0.1-0.9-0.3-1.1c-0.2-0.3-0.6-0.5-1-0.5c-0.4,0-0.8,0.2-1,0.5c-0.2,0.2-0.3,0.6-0.3,1.1v1.7
		c0,0.5,0.1,0.9,0.3,1.1c0.2,0.3,0.6,0.5,1,0.5s0.8-0.2,1-0.5c0.1-0.2,0.2-0.3,0.2-0.5c0-0.1,0-0.3,0-0.6v-0.1h-0.9
		c0,0.3,0,0.5,0,0.6c0,0.2-0.2,0.3-0.4,0.3c-0.3,0-0.4-0.2-0.4-0.7V16H17.1z M15.4,14.8c0-0.4,0.1-0.7,0.4-0.7
		c0.3,0,0.4,0.2,0.4,0.7v0.4h-0.9V14.8z M13.8,13.9c-0.1-0.4-0.3-0.5-0.7-0.5c-0.3,0-0.6,0.2-0.9,0.5v-2.1h-0.9v6.4h0.9v-0.5
		c0.3,0.4,0.6,0.5,0.9,0.5c0.3,0,0.6-0.2,0.7-0.5c0.1-0.2,0.1-0.5,0.1-1v-1.9C13.9,14.4,13.9,14.1,13.8,13.9z M13,16.8
		c0,0.4-0.1,0.6-0.4,0.6c-0.1,0-0.3-0.1-0.4-0.2v-2.9c0.1-0.1,0.3-0.2,0.4-0.2c0.2,0,0.4,0.2,0.4,0.6V16.8z M10.9,5.2
		c-0.3,0-0.4,0.2-0.4,0.7v2c0,0.4,0.1,0.7,0.4,0.7s0.4-0.2,0.4-0.7v-2C11.3,5.4,11.2,5.2,10.9,5.2z M9.8,13.4v3.6
		c-0.2,0.3-0.4,0.4-0.5,0.4c-0.1,0-0.2-0.1-0.2-0.2c0,0,0-0.1,0-0.3v-3.5H8.1v3.8c0,0.3,0,0.6,0.1,0.7c0.1,0.2,0.3,0.4,0.6,0.4
		c0.3,0,0.6-0.2,1-0.6v0.5h0.9v-4.7H9.8z M5,11.8v0.9h1v5.5h1v-5.5h1v-0.9H5z M10.9,5.2c-0.3,0-0.4,0.2-0.4,0.7v2
		c0,0.4,0.1,0.7,0.4,0.7s0.4-0.2,0.4-0.7v-2C11.3,5.4,11.2,5.2,10.9,5.2z M10.9,5.2c-0.3,0-0.4,0.2-0.4,0.7v2c0,0.4,0.1,0.7,0.4,0.7
		s0.4-0.2,0.4-0.7v-2C11.3,5.4,11.2,5.2,10.9,5.2z"/>
	<polygon id="XMLID_574_" class="st1" points="5,11.8 8,11.8 8,12.7 7,12.7 7,18.2 6,18.2 6,12.7 5,12.7 	"/>
	<path id="XMLID_573_" class="st1" d="M9.8,13.4h0.9v4.7H9.8v-0.5c-0.3,0.4-0.7,0.6-1,0.6c-0.3,0-0.5-0.1-0.6-0.4
		c0-0.1-0.1-0.4-0.1-0.7v-3.8H9v3.5c0,0.2,0,0.3,0,0.3c0,0.1,0.1,0.2,0.2,0.2c0.2,0,0.4-0.1,0.5-0.4V13.4z"/>
	<path id="XMLID_569_" class="st1" d="M13.8,13.9c-0.1-0.4-0.3-0.5-0.7-0.5c-0.3,0-0.6,0.2-0.9,0.5v-2.1h-0.9v6.4h0.9v-0.5
		c0.3,0.4,0.6,0.5,0.9,0.5c0.3,0,0.6-0.2,0.7-0.5c0.1-0.2,0.1-0.5,0.1-1v-1.9C13.9,14.4,13.9,14.1,13.8,13.9z M13,16.8
		c0,0.4-0.1,0.6-0.4,0.6c-0.1,0-0.3-0.1-0.4-0.2v-2.9c0.1-0.1,0.3-0.2,0.4-0.2c0.2,0,0.4,0.2,0.4,0.6V16.8z"/>
	<path id="XMLID_566_" class="st1" d="M17.1,16v-1c0-0.5-0.1-0.9-0.3-1.1c-0.2-0.3-0.6-0.5-1-0.5c-0.4,0-0.8,0.2-1,0.5
		c-0.2,0.2-0.3,0.6-0.3,1.1v1.7c0,0.5,0.1,0.9,0.3,1.1c0.2,0.3,0.6,0.5,1,0.5s0.8-0.2,1-0.5c0.1-0.2,0.2-0.3,0.2-0.5
		c0-0.1,0-0.3,0-0.6v-0.1h-0.9c0,0.3,0,0.5,0,0.6c0,0.2-0.2,0.3-0.4,0.3c-0.3,0-0.4-0.2-0.4-0.7V16H17.1z M15.4,14.8
		c0-0.4,0.1-0.7,0.4-0.7c0.3,0,0.4,0.2,0.4,0.7v0.4h-0.9V14.8z"/>
	<path id="XMLID_557_" class="st1" d="M5,11.8v0.9h1v5.5h1v-5.5h1v-0.9H5z M9.8,13.4v3.6c-0.2,0.3-0.4,0.4-0.5,0.4
		c-0.1,0-0.2-0.1-0.2-0.2c0,0,0-0.1,0-0.3v-3.5H8.1v3.8c0,0.3,0,0.6,0.1,0.7c0.1,0.2,0.3,0.4,0.6,0.4c0.3,0,0.6-0.2,1-0.6v0.5h0.9
		v-4.7H9.8z M13.8,13.9c-0.1-0.4-0.3-0.5-0.7-0.5c-0.3,0-0.6,0.2-0.9,0.5v-2.1h-0.9v6.4h0.9v-0.5c0.3,0.4,0.6,0.5,0.9,0.5
		c0.3,0,0.6-0.2,0.7-0.5c0.1-0.2,0.1-0.5,0.1-1v-1.9C13.9,14.4,13.9,14.1,13.8,13.9z M13,16.8c0,0.4-0.1,0.6-0.4,0.6
		c-0.1,0-0.3-0.1-0.4-0.2v-2.9c0.1-0.1,0.3-0.2,0.4-0.2c0.2,0,0.4,0.2,0.4,0.6V16.8z M17.1,16v-1c0-0.5-0.1-0.9-0.3-1.1
		c-0.2-0.3-0.6-0.5-1-0.5c-0.4,0-0.8,0.2-1,0.5c-0.2,0.2-0.3,0.6-0.3,1.1v1.7c0,0.5,0.1,0.9,0.3,1.1c0.2,0.3,0.6,0.5,1,0.5
		s0.8-0.2,1-0.5c0.1-0.2,0.2-0.3,0.2-0.5c0-0.1,0-0.3,0-0.6v-0.1h-0.9c0,0.3,0,0.5,0,0.6c0,0.2-0.2,0.3-0.4,0.3
		c-0.3,0-0.4-0.2-0.4-0.7V16H17.1z M15.4,14.8c0-0.4,0.1-0.7,0.4-0.7c0.3,0,0.4,0.2,0.4,0.7v0.4h-0.9V14.8z"/>
</g>
<g id="XMLID_375_">
	<path id="XMLID_541_" class="st2" d="M-176.2,2.2c0.1,0.4,0.1,0.7,0.1,1.1c0,3.3-2.7,6-6,6c-3.3,0-6-2.7-6-6c0-3.3,2.7-6,6-6
		c0.7,0,1.4,0.1,2,0.4c-1.8-1.2-3.9-1.9-6.3-1.9c-6.2,0-11.2,5-11.2,11.2c0,3.1,1.2,5.9,3.3,7.9l0.3-0.8l1.1,1.1l-0.8,0.2
		c2,1.8,4.6,2.8,7.4,2.8c6.2,0,11.2-5,11.2-11.2C-175.2,5.2-175.5,3.6-176.2,2.2z M-186.1,8.8l-6,5.5c-0.2,0.2-0.6,0-0.9-0.3
		c-0.2-0.2-0.3-0.5-0.3-0.7c0-0.1,0-0.2,0.1-0.3l6-5.5c0.2-0.2,0.6,0,0.9,0.3C-186,8.2-185.9,8.6-186.1,8.8z M-183.9,1.3
		c-0.3,0-0.5,0.2-0.5,0.5c0,0.3,0.2,0.5,0.5,0.5c0.3,0,0.5-0.2,0.5-0.5C-183.4,1.5-183.6,1.3-183.9,1.3z M-183.9,3
		c-0.3,0-0.5,0.2-0.5,0.5c0,0.3,0.2,0.5,0.5,0.5c0.3,0,0.5-0.2,0.5-0.5C-183.4,3.3-183.6,3-183.9,3z M-183.9,4.8
		c-0.3,0-0.5,0.2-0.5,0.5c0,0.3,0.2,0.5,0.5,0.5c0.3,0,0.5-0.2,0.5-0.5C-183.4,5-183.6,4.8-183.9,4.8z"/>
	<g id="XMLID_536_">
		<circle id="XMLID_540_" class="st3" cx="-183.9" cy="5.3" r="0.5"/>
		<circle id="XMLID_539_" class="st3" cx="-183.9" cy="3.5" r="0.5"/>
		<circle id="XMLID_538_" class="st3" cx="-183.9" cy="1.8" r="0.5"/>
		<line id="XMLID_537_" class="st4" x1="-193.7" y1="15.2" x2="-194.2" y2="14.8"/>
	</g>
	<circle id="XMLID_535_" class="st2" cx="-183.9" cy="1.8" r="0.5"/>
	<circle id="XMLID_534_" class="st2" cx="-183.9" cy="3.5" r="0.5"/>
	<circle id="XMLID_533_" class="st2" cx="-183.9" cy="5.3" r="0.5"/>
	<line id="XMLID_532_" class="st5" x1="-183.5" y1="1.8" x2="-180.3" y2="1.8"/>
	<line id="XMLID_447_" class="st5" x1="-183.5" y1="3.5" x2="-179.5" y2="3.5"/>
	<line id="XMLID_378_" class="st5" x1="-183.5" y1="5.3" x2="-178.8" y2="5.3"/>
	<polyline id="XMLID_377_" class="st5" points="-180.5,3.5 -179.8,2.7 -178.6,2.7 	"/>
	<polyline id="XMLID_376_" class="st5" points="-181.5,3.6 -180.8,4.4 -179.6,4.4 	"/>
</g>
</svg>
